<svg width="270" height="341" viewBox="0 0 270 341" fill="none" xmlns="http://www.w3.org/2000/svg">
<path d="M132.121 105.099C110.518 62.3646 75.7887 -16.051 109.691 12.1583C143.593 40.3676 138.77 85.8723 132.121 105.099Z" fill="white"/>
<path d="M147.369 106.288C167.973 63.2469 201.475 -15.5462 170.647 13.6087C139.82 42.7637 142.284 87.5427 147.369 106.288Z" fill="white"/>
<ellipse cx="206.222" cy="154.4" rx="39.8627" ry="48.6325" fill="#71F0F0"/>
<ellipse cx="135.004" cy="154.401" rx="57.9339" ry="70.9557" fill="#68E2E2"/>
<ellipse cx="57.9339" cy="148.287" rx="57.9339" ry="93.0131" fill="#71F0F0"/>
<path d="M29.7656 247.147H77.6826C79.3492 267.309 72.823 278.088 81.4326 292.099C91.7104 308.825 109.627 307.083 130.183 292.099C135.368 304.743 141.433 324.058 111.572 337.051C73.5646 353.588 57.9602 309.423 56.5713 292.099V337.051H29.7656V247.147Z" fill="#FDED1F"/>
<path d="M149.355 233.861H197.272C198.939 254.022 192.413 264.802 201.022 278.813C211.3 295.539 229.217 293.797 249.773 278.813C254.958 291.457 261.023 310.772 231.161 323.765C193.154 340.302 177.55 296.137 176.161 278.813V323.765H149.355V233.861Z" fill="#FDED1F"/>
<ellipse cx="207.553" cy="145.099" rx="4.51778" ry="4.78353" fill="black"/>
<ellipse cx="205.954" cy="143.505" rx="1.86026" ry="1.59451" fill="white"/>
<circle cx="224.295" cy="145.099" r="4.78353" fill="black"/>
<path d="M201.441 164.233C204.515 177.547 222.47 182.564 231.206 165.97" stroke="black" stroke-width="3"/>
<rect x="166.359" y="102.048" width="95.6706" height="13.8191" rx="6.90954" fill="#FDED1F"/>
<rect x="189.215" y="85.0391" width="50.4928" height="30.8272" rx="15.4136" fill="#FDED1F"/>
<ellipse cx="222.97" cy="143.505" rx="1.86026" ry="1.59451" fill="white"/>
<path d="M214.707 160.347L269.235 152.886" stroke="black" stroke-opacity="0.7" stroke-width="3"/>
</svg>
