<svg width="288" height="327" viewBox="0 0 288 327" fill="none" xmlns="http://www.w3.org/2000/svg">
<path d="M59.9787 261.703C2.95665 295.464 -35.2796 249.966 59.9786 126.394" stroke="black" stroke-width="2.89894"/>
<path d="M90.1718 281.385C89.7718 342.33 194.989 347.584 232.074 210.785" stroke="black" stroke-width="2.89894"/>
<rect x="183.539" y="22.1807" width="97.702" height="276.099" transform="rotate(34.0995 183.539 22.1807)" fill="#FECED6"/>
<ellipse cx="147.784" cy="160.159" rx="17.8495" ry="40.6013" transform="rotate(-55.9005 147.784 160.159)" fill="white"/>
<ellipse cx="173.756" cy="122.639" rx="17.8495" ry="40.6013" transform="rotate(-55.9005 173.756 122.639)" fill="white"/>
<ellipse cx="42.0066" cy="246.41" rx="6.37766" ry="8.69681" fill="#FDED1F"/>
<ellipse cx="116.8" cy="219.74" rx="6.37766" ry="8.69681" fill="#FDED1F"/>
<ellipse cx="88.6793" cy="279.748" rx="6.66755" ry="8.40691" fill="#FDED1F"/>
<ellipse cx="70.7066" cy="207.274" rx="6.66755" ry="8.40691" fill="#FDED1F"/>
<ellipse cx="53.6003" cy="255.106" rx="6.37766" ry="8.69681" fill="#FDED1F"/>
<ellipse cx="142.597" cy="235.973" rx="6.66755" ry="8.69681" fill="#FDED1F"/>
<ellipse cx="107.812" cy="291.923" rx="6.66755" ry="8.40691" fill="#FDED1F"/>
<ellipse cx="88.6793" cy="193.939" rx="6.66755" ry="8.40691" fill="#FDED1F"/>
<ellipse cx="98.823" cy="254.237" rx="6.37766" ry="8.40691" fill="#FDED1F"/>
<ellipse cx="55.0504" cy="235.973" rx="6.66755" ry="8.69681" fill="#FDED1F"/>
<ellipse cx="133.902" cy="219.74" rx="6.66755" ry="8.69681" fill="#FDED1F"/>
<ellipse cx="102.882" cy="274.24" rx="6.37766" ry="8.69681" fill="#FDED1F"/>
<ellipse cx="119.698" cy="274.529" rx="6.37766" ry="8.40691" fill="#FDED1F"/>
<ellipse cx="85.7808" cy="238.583" rx="6.66755" ry="8.40691" fill="#FDED1F"/>
<ellipse cx="70.4167" cy="248.439" rx="6.37766" ry="8.40691" fill="#FDED1F"/>
<ellipse cx="98.823" cy="226.407" rx="6.37766" ry="8.40691" fill="#FDED1F"/>
<ellipse cx="150.714" cy="219.45" rx="6.66755" ry="8.40691" fill="#FDED1F"/>
<ellipse cx="133.32" cy="253.367" rx="6.66755" ry="8.69681" fill="#FDED1F"/>
<ellipse cx="68.0964" cy="225.827" rx="6.37766" ry="8.40691" fill="#FDED1F"/>
<ellipse cx="125.207" cy="202.346" rx="6.66755" ry="8.69681" fill="#FDED1F"/>
<ellipse cx="118.246" cy="257.425" rx="6.66755" ry="8.69681" fill="#FDED1F"/>
<ellipse cx="102.882" cy="205.245" rx="6.37766" ry="8.69681" fill="#FDED1F"/>
<ellipse cx="124.335" cy="238.583" rx="6.37766" ry="8.40691" fill="#FDED1F"/>
<ellipse cx="73.023" cy="267.862" rx="6.66755" ry="8.69681" fill="#FDED1F"/>
<ellipse cx="84.6207" cy="259.165" rx="6.66755" ry="8.69681" fill="#FDED1F"/>
<ellipse cx="86.359" cy="217.42" rx="6.66755" ry="8.69681" fill="#FDED1F"/>
<ellipse cx="108.972" cy="238.583" rx="6.66755" ry="8.40691" fill="#FDED1F"/>
<circle cx="132.164" cy="149.875" r="9.56649" fill="black"/>
<ellipse cx="191.879" cy="129.872" rx="9.56649" ry="9.85638" fill="black"/>
<path d="M182.312 93.8686C191.009 90.2467 207.335 88.3183 203.066 109.58" stroke="black" stroke-width="2.89894"/>
<ellipse cx="219.8" cy="57.4821" rx="60.0301" ry="25.253" transform="rotate(29.8081 219.8 57.4821)" fill="white"/>
<path d="M39.3022 178.461L17.0604 152.965C1.00287 134.558 16.5179 133.358 26.2826 135.059C15.8669 123.849 28.0909 121.306 35.5048 121.436C27.1144 109.758 39.0008 110.342 45.9928 112.093C37.6024 98.8589 47.4394 102.557 53.4067 106.06L50.8751 99.4429C45.2695 79.9803 86.679 103.919 100.06 121.436C110.765 135.449 93.671 138.822 83.7858 138.757C90.0062 155.417 79.6267 155.171 73.6594 152.965C78.4333 170.092 64.1961 171.649 56.4808 170.287C57.7828 184.144 45.5709 181.51 39.3022 178.461Z" fill="#FDED1F"/>
<path d="M225.056 175.681L256.435 190.508C279.088 201.212 264.95 208.698 255.05 211.102C269.446 217.361 258.96 224.759 251.917 227.676C264.594 235.203 253.15 239.527 245.842 240.748C259.156 249.737 248.372 250.296 241.316 249.452L246.404 254.629C259.634 270.608 210.82 265.1 191.053 254.135C175.24 245.363 189.979 235.188 199.326 231.198C186.66 218.102 196.546 214.079 203.073 213.705C191.58 199.578 204.367 192.281 212.197 190.398C205.313 177.918 217.901 175.386 225.056 175.681Z" fill="#FDED1F"/>
<ellipse cx="222.109" cy="51.7527" rx="60.0301" ry="25.253" transform="rotate(29.8081 222.109 51.7527)" fill="#71F0F0"/>
</svg>
