<svg width="453" height="562" viewBox="0 0 453 562" fill="none" xmlns="http://www.w3.org/2000/svg">
<path d="M155.542 264.998C112.175 286.921 32.5977 322.165 61.2249 287.76C89.8521 253.356 136.031 258.25 155.542 264.998Z" fill="white"/>
<path d="M156.743 249.523C113.065 228.614 33.1042 194.615 62.6911 225.9C92.2779 257.184 137.72 254.684 156.743 249.523Z" fill="white"/>
<ellipse cx="205.572" cy="189.797" rx="40.4533" ry="49.353" transform="rotate(-90 205.572 189.797)" fill="#71F0F0"/>
<ellipse cx="205.573" cy="262.072" rx="58.7921" ry="72.0068" transform="rotate(-90 205.573 262.072)" fill="#68E2E2"/>
<ellipse cx="199.368" cy="340.284" rx="58.7921" ry="94.3909" transform="rotate(-90 199.368 340.284)" fill="#71F0F0"/>
<path d="M299.691 368.87V320.243C320.151 318.552 331.09 325.175 345.309 316.438C362.283 306.008 360.515 287.826 345.309 266.965C358.141 261.703 377.742 255.549 390.927 285.852C407.709 324.422 362.889 340.258 345.309 341.667H390.927V368.87H299.691Z" fill="#FDED1F"/>
<path d="M286.207 247.508V198.881C306.667 197.19 317.606 203.813 331.825 195.075C348.799 184.645 347.031 166.463 331.825 145.603C344.656 140.341 364.257 134.186 377.442 164.49C394.224 203.06 349.405 218.896 331.825 220.305H377.442V247.508H286.207Z" fill="#FDED1F"/>
<ellipse cx="196.132" cy="188.449" rx="4.5847" ry="4.85439" transform="rotate(-90 196.132 188.449)" fill="black"/>
<ellipse cx="194.513" cy="190.069" rx="1.88782" ry="1.61813" transform="rotate(-90 194.513 190.069)" fill="white"/>
<circle cx="196.132" cy="171.46" r="4.85439" transform="rotate(-90 196.132 171.46)" fill="black"/>
<path d="M215.547 194.652C229.058 191.533 234.149 173.312 217.309 164.447" stroke="black" stroke-width="3"/>
<rect x="152.441" y="230.25" width="97.0878" height="14.0238" rx="7.0119" transform="rotate(-90 152.441 230.25)" fill="#FDED1F"/>
<rect x="135.18" y="207.057" width="51.2408" height="31.2839" rx="15.6419" transform="rotate(-90 135.18 207.057)" fill="#FDED1F"/>
<ellipse cx="194.513" cy="172.806" rx="1.88782" ry="1.61813" transform="rotate(-90 194.513 172.806)" fill="white"/>
<path d="M211.605 181.187L204.034 125.851" stroke="black" stroke-opacity="0.7" stroke-width="3"/>
<path d="M66.1669 81.623C46.1326 104.592 28.4343 128.392 16.6621 156.82C2.42358 191.205 1.71656 228.218 3.97371 264.888C6.95697 313.355 10.6133 370.057 37.3433 412.381C65.483 456.938 109.671 487.369 159.831 501.262C197.36 511.656 236.285 513.44 274.777 507.991C315.903 502.17 350.382 487.498 382.104 460.537C453.012 400.269 463.529 293.617 435.93 209.103C422.628 168.373 402.05 128.398 369.94 99.3342C339.35 71.6467 301.22 51.3847 262.987 36.5946C248.98 31.1761 238.772 28.4825 224.772 24.2869C220.714 23.0706 210.597 23.0394 212.983 19.5339C214.026 18.0017 216.413 18.1068 218.203 17.6327C221.902 16.653 225.67 15.9502 229.418 15.1812C243.488 12.2945 257.826 10.1502 271.53 5.70018C273.1 5.19008 277.327 2.73491 275.701 3.0235C270.305 3.98125 260.686 7.86948 256.718 9.47756C238.331 16.929 218.573 24.7711 201.668 35.2938C190.582 42.195 219.549 46.1034 221.825 46.726C245.432 53.1854 268.088 60.9105 290.962 69.4653" stroke="white" stroke-width="5" stroke-linecap="round"/>
<path d="M21.5352 426C18.3104 429.415 15.1332 432.876 11.9645 436.343C9.86667 438.638 7.65941 441.01 6.10991 443.729C5.543 444.723 4.16734 446.709 5.29997 447.804C5.77072 448.26 6.46268 448.347 6.99546 448.681" stroke="white" stroke-width="4" stroke-linecap="round"/>
<path d="M13.7852 426.93C15.4241 428.477 17.063 430.025 18.702 431.572C18.8221 431.686 20.4065 433.182 20.326 433.106" stroke="white" stroke-width="4" stroke-linecap="round"/>
<path d="M29.0508 441.348C26.9276 443.596 24.8993 445.899 23.0558 448.392C21.1861 450.92 18.5301 453.926 18.4463 457.309C18.3634 460.66 22.6784 461.612 25.2623 461.947C29.0255 462.436 32.3789 461.318 35.51 459.552C36.8994 458.769 38.2107 457.67 39.3201 456.541C39.804 456.048 40.2692 455.536 40.7432 455.034C40.9555 454.809 41.4422 454.654 41.3607 454.341C41.3087 454.141 41.0123 454.533 40.8519 454.648C40.3476 455.012 39.8519 455.391 39.3748 455.788C37.6105 457.255 36.1478 458.95 34.6695 460.694C32.765 462.94 30.8227 465.151 28.9844 467.448C28.6112 467.914 28.1824 468.336 27.7729 468.77C27.2402 469.334 28.3921 467.781 28.4284 467.728" stroke="white" stroke-width="4" stroke-linecap="round"/>
<path d="M50.0341 462.061C47.6529 465.196 44.655 467.811 41.8497 470.558C39.8809 472.486 38.0569 474.595 35.9582 476.382C35.6557 476.639 34.7997 477.469 35.0941 477.202C35.4179 476.909 35.7647 476.64 36.094 476.351C36.802 475.732 37.5665 475.194 38.24 474.533C39.4299 473.364 40.572 472.205 41.9904 471.298C44.3725 469.775 47.2397 468.95 49.9186 468.085C51.4462 467.591 52.9919 467.207 54.5899 466.996C55.0399 466.937 56.3811 466.785 56.5849 467.437C56.777 468.051 55.002 470.022 55.8446 470.302C56.639 470.565 56.7246 470.501 56.9587 469.708" stroke="white" stroke-width="4" stroke-linecap="round"/>
<path d="M63.9492 474.301C60.1769 478.296 56.3596 482.339 52.58 486.341C51.5014 487.484 50.4226 488.626 49.344 489.768C48.9866 490.147 48.5303 490.63 49.1537 489.97" stroke="white" stroke-width="4" stroke-linecap="round"/>
<path d="M51.1353 487.874C53.9898 484.851 57.4281 482.268 61.4774 481.132C62.9049 480.731 64.3869 480.813 65.8345 481.013C68.2868 481.353 70.2577 482.085 70.9559 484.638C72.0263 488.55 69.4167 492.449 67.0985 495.361C65.9745 496.772 64.5869 497.973 63.4096 499.341C62.7074 500.158 61.8519 501.287 61.2076 501.969" stroke="white" stroke-width="4" stroke-linecap="round"/>
<path d="M105.658 508.242C105.827 510.686 105.961 513.162 106.454 515.557C106.875 517.601 107.408 519.863 108.462 521.66C108.787 522.213 109.29 522.536 109.898 522.658C112.016 523.081 114.153 521.202 115.668 519.878C116.949 518.759 118.027 517.403 119.177 516.148C120.066 515.178 121.037 514.243 121.401 512.917C121.49 512.592 121.213 512.924 121.144 512.986C120.721 513.367 120.272 513.698 119.929 514.166C118.927 515.533 118.246 517.141 117.467 518.642C115.983 521.499 114.381 524.293 112.683 527.021C111.478 528.957 110.151 530.839 108.711 532.596C107.408 534.186 106.083 535.834 104.33 536.902C102.61 537.95 100.126 538.344 98.3991 537.106C97.5241 536.479 97.4739 534.853 98.1232 534.105" stroke="white" stroke-width="4" stroke-linecap="round"/>
<path d="M136.664 516.747C134.852 516.927 133.259 517.003 131.603 517.892C129.611 518.96 127.953 520.617 127.116 522.707C126.083 525.287 125.735 527.97 126.645 530.639C127.533 533.243 129.732 535.347 132.353 536.285C134.39 537.015 137.309 536.736 139.07 535.462C140.981 534.079 142.156 531.568 142.802 529.385C143.481 527.092 143.656 525.253 142.659 522.99C142.002 521.501 141.038 520.399 140.056 519.156" stroke="white" stroke-width="4" stroke-linecap="round"/>
<path d="M156.91 523.338C155.812 527.342 155.303 531.54 154.818 535.653C154.557 537.874 153.705 541.597 155.832 543.325C157.127 544.378 158.851 543.933 160.262 543.524C162.453 542.889 164.532 542.264 165.938 540.355C167.656 538.022 168.585 535.201 169.586 532.514C169.892 531.694 170.188 530.871 170.434 530.03C170.64 529.331 171.422 527.325 170.996 527.917C170.567 528.512 170.31 529.483 170.073 530.153C168.981 533.236 168.425 536.485 167.892 539.702C167.61 541.409 167.362 543.112 167.257 544.839C167.215 545.525 167.179 546.185 167.049 546.858" stroke="white" stroke-width="4" stroke-linecap="round"/>
<path d="M183.005 530.498C182.681 532.424 182.353 534.344 181.869 536.238C181.183 538.924 180.43 541.596 179.686 544.267C179.214 545.96 178.856 548.086 178.082 549.714C177.724 550.469 178.134 548.029 178.352 547.224C178.892 545.236 179.631 543.387 180.601 541.568C181.912 539.109 183.568 536.601 185.682 534.732C186.408 534.09 187.235 533.559 188.113 533.137C188.593 532.907 189.639 532.326 190.21 532.689C191.097 533.254 191.28 534.334 192.466 534.597C192.676 534.643 193.023 534.686 193.203 534.521C193.462 534.285 192.955 534.09 192.845 533.993" stroke="white" stroke-width="4" stroke-linecap="round"/>
<path d="M232 536.922C232.316 540.375 232.905 543.788 233.329 547.228C233.773 550.832 234.057 554.457 234.528 558.057C234.589 558.526 234.764 558.981 234.801 559.45C234.821 559.702 234.815 559.96 234.72 559.579" stroke="white" stroke-width="4" stroke-linecap="round"/>
<path d="M232.58 544.202C233.078 540.986 235.249 537.665 238.584 537.399C240.356 537.257 242.33 538.63 243.291 540.119C244.504 541.999 244.893 544.718 244.559 546.924C244.327 548.454 243.733 550.512 242.434 551.436C241.763 551.914 240.847 552.068 240.062 552.228C239.008 552.443 237.928 552.532 236.853 552.494C235.667 552.453 234.295 552.067 233.7 550.866C233.589 550.643 233.406 550.302 233.675 550.184" stroke="white" stroke-width="4" stroke-linecap="round"/>
<path d="M255.367 528.034C255.973 534.56 256.653 541.091 257.455 547.596C257.582 548.62 257.821 549.641 257.903 550.669C257.996 551.828 257.386 548.396 257.27 547.24C256.911 543.672 257.976 540.208 260.025 537.256C260.66 536.341 261.526 535.027 262.667 534.692C263.591 534.42 264.528 534.88 265.221 535.449C267.251 537.118 268.505 539.62 269.033 542.14C269.441 544.086 269.752 546.012 269.91 547.993C269.944 548.413 269.977 548.833 270.011 549.252C270.045 549.686 270.081 549.338 270.092 549.121" stroke="white" stroke-width="4" stroke-linecap="round"/>
<path d="M283.417 533.82C281.714 534.474 280.471 535.285 279.457 536.805C278.284 538.563 278.433 540.924 278.633 542.894C278.878 545.318 280.326 547.981 282.753 548.981C283.616 549.337 284.612 549.383 285.533 549.495C286.447 549.606 287.381 549.672 288.26 549.341C291.916 547.967 293.252 543.105 292.253 539.776C291.74 538.068 290.496 536.722 288.932 535.823C288.465 535.554 288.002 535.341 287.488 535.173C287.177 535.071 286.949 534.979 286.805 534.698" stroke="white" stroke-width="4" stroke-linecap="round"/>
<path d="M301.132 531.404C301.292 532.993 301.544 534.571 301.683 536.163C301.908 538.73 302.007 541.314 302.128 543.888C302.194 545.287 302.476 549.468 302.229 548.089C301.886 546.166 301.753 544.16 301.922 542.213C302.05 540.728 302.667 539.306 303.222 537.924C303.911 536.209 304.703 534.572 306.04 533.218C307.515 531.725 309.34 530.216 311.59 531.093C312.531 531.46 313.13 532.16 313.712 532.917C314.603 534.078 315.314 535.329 315.665 536.738C316.18 538.805 316.4 540.937 316.569 543.052C316.609 543.551 316.577 545.154 316.948 545.455" stroke="white" stroke-width="4" stroke-linecap="round"/>
<path d="M324.119 531.553C326.746 531.344 329.381 531.021 332.012 530.91C333.523 530.846 335.255 530.851 336.613 530.098C337.651 529.523 337.346 527.554 336.853 526.721C336.442 526.025 335.673 525.251 334.964 524.864C333.978 524.326 332.751 524.388 331.669 524.432C329.29 524.529 327.126 525.204 325.491 527.048C324.569 528.087 323.877 529.268 323.652 530.661C323.328 532.678 323.887 534.625 324.851 536.389C326.483 539.378 329.972 541.164 333.304 540.209C334.333 539.914 335.151 539.332 335.828 538.501C336.017 538.269 336.17 538.013 336.347 537.772C336.486 537.581 336.442 537.587 336.302 537.419" stroke="white" stroke-width="4" stroke-linecap="round"/>
<path d="M375.086 498.772C374.082 500.154 373.665 501.585 373.74 503.32C373.839 505.623 374.911 507.477 376.185 509.334C376.973 510.484 377.865 511.817 378.947 512.72C379.966 513.57 381.549 513.973 382.833 514.041C384.348 514.121 386.034 513.818 387.501 513.483C388.481 513.259 389.381 512.861 390.035 512.08C393.213 508.282 391.147 503.129 388.349 499.691C386.778 497.76 384.813 496.105 382.191 496.122C380.493 496.133 379.116 497.254 377.45 497.255" stroke="white" stroke-width="4" stroke-linecap="round"/>
<path d="M386.848 485.429C388.906 486.376 391.033 487.135 393.119 488.015C396.452 489.421 399.73 491.088 403.163 492.246C404.033 492.54 404.896 492.857 405.758 493.174C405.969 493.252 406.819 493.684 407.021 493.46C407.22 493.239 406.621 492.26 406.523 492.098C405.513 490.434 405.214 488.547 404.612 486.712C403.157 482.277 401.17 477.992 399.223 473.757" stroke="white" stroke-width="4" stroke-linecap="round"/>
<path d="M411.84 475.127C412.773 474.017 413.828 473.017 414.827 471.968C416.522 470.187 418.241 468.44 420.01 466.733C420.778 465.992 422.001 464.975 422.189 463.869C422.51 461.974 419.824 460.663 418.279 460.672C415.536 460.689 412.833 461.331 411.205 463.755C410.545 464.737 410.15 465.899 409.741 466.998C409.198 468.459 409.034 469.978 409.347 471.495C410.071 475.004 412.888 478.65 416.744 478.703C418.393 478.726 420.22 478.346 421.754 477.717C423.305 477.081 424.39 476.087 425.218 474.634C425.978 473.302 426.603 471.452 426.608 469.924" stroke="white" stroke-width="4" stroke-linecap="round"/>
<path d="M422.683 450.537C423.497 451.276 424.357 451.963 425.19 452.679C427.762 454.892 430.222 457.216 432.556 459.678C433.833 461.026 435.028 462.422 436.278 463.787C436.499 464.028 436.735 464.259 436.901 464.543C437.013 464.734 436.595 464.226 436.449 464.06C434.837 462.229 433.289 460.321 431.81 458.378C430.26 456.341 429.017 454.256 428.357 451.733C427.984 450.308 427.802 448.785 427.978 447.293C428.049 446.684 428.225 445.588 429.004 445.454C429.511 445.367 430.007 445.666 430.47 445.791C431.071 445.953 431.492 445.611 431.849 445.121C432.167 444.684 432.464 444.111 432.481 443.569C432.494 443.194 432.258 443.192 431.982 443.045" stroke="white" stroke-width="4" stroke-linecap="round"/>
</svg>
