<svg width="772" height="295" viewBox="0 0 772 295" fill="none" xmlns="http://www.w3.org/2000/svg">
<rect x="153" width="462" height="295" fill="#FFB432"/>
<path d="M403 203C415.4 244.2 392.833 227.833 380 214.5L390.5 209.5L403 203Z" fill="#BA0000"/>
<path d="M338 194C349.24 208.81 379.178 229.545 409.011 194" stroke="black" stroke-width="5.55391" stroke-linecap="round"/>
<path d="M155.255 175.012C120.345 175.012 86.6394 167.384 57.2539 147.974C50.7784 143.696 41.5684 138.723 38.2959 131.243C37.4966 129.416 38.8231 126.174 41.093 128.032C46.7433 132.655 42.9588 137.003 36.6902 135.75C32.6674 134.945 28.9072 132.698 24.9322 131.606C18.0734 129.721 11.6371 128.406 5.24907 125.079C-4.06176 120.23 6.53957 125.19 9.80726 126.322C17.9173 129.134 27.3795 129.147 35.8615 130.207C37.8832 130.46 41.4406 132.12 43.3721 130.984C47.524 128.542 41.8586 115.565 40.6786 112.7C37.5936 105.207 40.3009 117.283 40.5232 119.951C40.8321 123.657 40.575 127.47 40.575 131.191C40.575 132.19 40.5013 133.179 39.4873 131.657C36.0286 126.469 32.889 120.819 29.594 115.497C26.918 111.174 23.3083 107.505 20.7884 103.221C19.9142 101.734 21.7564 105.332 21.9279 106.018" stroke="#229432" stroke-width="3" stroke-linecap="round"/>
<path d="M616.531 166.754C641.998 163.698 666.751 151.134 688.389 138.011C701.217 130.232 715.236 122.699 726.208 112.294C729.061 109.589 732.259 107.466 732.259 103.444C732.259 96.8383 732.259 90.2324 732.259 83.6266C732.259 69.3151 733.621 89.97 733.621 94.5943C733.621 95.4071 733.098 100.432 733.923 98.6788C736.044 94.1715 738.153 90.6675 741.79 87.0304C742.7 86.1204 750.69 78.2054 752.379 81.5843C753.866 84.5585 748.96 91.2083 747.16 93.2328C746.084 94.4431 733.618 104.016 740.58 102.083C747.516 100.156 753.85 100.679 760.7 102.763C763.407 103.587 767.199 104.306 769.474 106.167C770.161 106.729 770.382 108.322 770.382 106.848" stroke="#229432" stroke-width="3" stroke-linecap="round"/>
</svg>
