<svg width="170" height="170" viewBox="0 0 170 170" fill="none" xmlns="http://www.w3.org/2000/svg">
<path fill-rule="evenodd" clip-rule="evenodd" d="M128.986 85.0055V85.0055L129.1 85.4464L129.436 85.8941L129.983 86.355L130.735 86.8354L131.687 87.3412L132.836 87.8783L134.176 88.4526L135.705 89.0696L137.418 89.7347L139.306 90.453L141.361 91.2289L143.568 92.066L145.911 92.967L148.363 93.9329L150.897 94.9627L153.474 96.0535L156.051 97.1994L158.577 98.3916L160.996 99.6182L163.247 100.864L165.268 102.111L166.997 103.338L168.378 104.524L169.362 105.646L169.91 106.683L170 107.613L169.623 108.421L168.79 109.095L167.523 109.627L165.864 110.015L163.862 110.262L161.575 110.377L159.067 110.37L156.4 110.257L153.637 110.055L150.834 109.78L148.042 109.452L145.304 109.086L142.657 108.7L140.129 108.308L137.744 107.924L135.516 107.559L133.458 107.224L131.578 106.928L129.879 106.679L128.364 106.484L127.035 106.352L125.89 106.287L124.932 106.298L124.16 106.392L123.577 106.577L123.186 106.863L122.994 107.26L122.994 107.774L123.175 108.404L123.527 109.153L124.042 110.023L124.713 111.016L125.534 112.137L126.5 113.389L127.602 114.773L128.834 116.291L130.186 117.942L131.644 119.725L133.194 121.633L134.815 123.657L136.484 125.784L138.171 127.993L139.844 130.26L141.465 132.554L142.991 134.839L144.378 137.073L145.582 139.209L146.558 141.201L147.266 143L147.672 144.56L147.751 145.84L147.488 146.809L146.88 147.444L145.937 147.735L144.68 147.683L143.141 147.302L141.36 146.617L139.381 145.661L137.254 144.474L135.026 143.099L132.744 141.582L130.448 139.968L128.178 138.298L125.963 136.61L123.829 134.939L121.796 133.314L119.878 131.758L118.085 130.292L116.423 128.931L114.894 127.689L113.499 126.576L112.238 125.6L111.106 124.767L110.102 124.083L109.222 123.556L108.464 123.191L107.824 122.996L107.302 122.981L106.895 123.158L106.601 123.532L106.408 124.1L106.307 124.857L106.29 125.801L106.349 126.93L106.476 128.245L106.666 129.745L106.911 131.429L107.203 133.295L107.536 135.339L107.899 137.553L108.282 139.926L108.674 142.443L109.061 145.082L109.429 147.813L109.761 150.602L110.04 153.406L110.249 156.174L110.37 158.851L110.386 161.374L110.281 163.68L110.045 165.707L109.668 167.395L109.148 168.694L108.485 169.564L107.687 169.977L106.766 169.924L105.737 169.412L104.621 168.462L103.439 167.111L102.214 165.408L100.968 163.408L99.721 161.173L98.4923 158.765L97.2967 156.246L96.1467 153.671L95.0512 151.093L94.0162 148.554L93.0452 146.094L92.139 143.743L91.2967 141.524L90.516 139.456L89.7932 137.554L89.124 135.828L88.5033 134.284L87.9258 132.928L87.3859 131.765L86.8778 130.797L86.3956 130.029L85.9333 129.465L85.4847 129.113L85.0435 128.98L84.6028 129.076L84.1559 129.395L83.6962 129.925L83.2175 130.661L82.7139 131.597L82.1794 132.73L81.6083 134.056L80.9949 135.57L80.3337 137.267L79.6198 139.142L78.8486 141.184L78.0163 143.38L77.1204 145.712L76.1597 148.156L75.1347 150.685L74.0485 153.259L72.9067 155.838L71.7176 158.37L70.4932 160.799L69.2482 163.066L68.0006 165.107L66.7707 166.862L65.5804 168.273L64.4523 169.289L63.4084 169.873L62.4687 170L61.6501 169.661L60.9653 168.862L60.422 167.63L60.0226 166L59.7642 164.023L59.6395 161.757L59.637 159.264L59.742 156.608L59.938 153.851L60.2074 151.049L60.5323 148.255L60.8955 145.511L61.2806 142.856L61.6726 140.318L62.0581 137.921L62.425 135.68L62.7629 133.609L63.0625 131.714L63.3156 130.001L63.5145 128.472L63.6524 127.127L63.7225 125.968L63.7177 124.995L63.6308 124.208L63.4533 123.61L63.176 123.204L62.7879 122.996L62.2837 122.982L61.6627 123.148L60.9233 123.487L60.0631 123.989L59.0792 124.648L57.9683 125.457L56.7273 126.411L55.3539 127.503L53.8465 128.725L52.2053 130.068L50.4327 131.518L48.5341 133.061L46.5186 134.677L44.3997 136.342L42.1963 138.029L39.9326 139.705L37.639 141.331L35.3517 142.866L33.112 144.266L30.9655 145.486L28.9602 146.482L27.1444 147.212L25.564 147.644L24.2599 147.749L23.2652 147.513L22.603 146.933L22.2847 146.016L22.3097 144.783L22.665 143.265L23.3271 141.502L24.263 139.538L25.4334 137.421L26.7947 135.199L28.3019 132.919L29.9102 130.624L31.5774 128.35L33.265 126.13L34.9387 123.99L36.5691 121.948L38.1315 120.021L39.6055 118.218L40.975 116.545L42.2268 115.005L43.3507 113.6L44.3385 112.328L45.1832 111.186L45.8786 110.172L46.4187 109.283L46.7969 108.515L47.0055 107.866L47.0353 107.334L46.8746 106.918L46.5156 106.616L45.9628 106.415L45.2208 106.307L44.2917 106.284L43.1769 106.337L41.8767 106.459L40.3914 106.644L38.7219 106.885L36.8701 107.174L34.8401 107.503L32.639 107.864L30.2775 108.246L27.7711 108.638L25.1412 109.026L22.4156 109.396L19.6294 109.731L16.8248 110.016L14.0516 110.231L11.3657 110.359L8.82794 110.384L6.50175 110.289L4.4502 110.064L2.73258 109.698L1.40085 109.189L0.496113 108.538L0.0457149 107.751L0.0612635 106.838L0.537785 105.818L1.45418 104.708L2.77488 103.531L4.4525 102.308L6.43112 101.063L8.64983 99.8157L11.0462 98.585L13.5591 97.3864L16.1314 96.2325L18.7116 95.1325L21.2546 94.0926L23.7224 93.1165L26.0839 92.2052L28.3142 91.358L30.3944 90.5726L32.3101 89.8454L34.051 89.1722L35.6096 88.5479L36.9806 87.9672L38.1597 87.4245L39.1435 86.9141L39.9279 86.4301L40.5081 85.9664L40.8777 85.5171L41.0279 85.0755L40.9498 84.6351L40.649 84.1889L40.1351 83.7305L39.4152 83.2537L38.4945 82.7523L37.3772 82.2205L36.0669 81.6526L34.5676 81.0428L32.884 80.3856L31.023 79.6762L28.9939 78.9097L26.8096 78.0825L24.4875 77.1918L22.0505 76.2363L19.5276 75.2165L16.9547 74.1351L14.3746 72.9975L11.8368 71.8119L9.39682 70.5899L7.11477 69.3461L5.05292 68.098L3.27304 66.866L1.83303 65.6718L0.783371 64.538L0.163713 63.4867L0 62.5382L0.302453 61.7095L1.06472 61.0138L2.2643 60.459L3.86418 60.0482L5.81553 59.7789L8.06097 59.6439L10.5383 59.6321L13.1837 59.7291L15.9355 59.9185L18.7358 60.1827L21.5328 60.5039L24.2819 60.8646L26.9456 61.2485L29.4939 61.6404L31.9036 62.0268L34.1572 62.3956L36.2426 62.7362L38.1516 63.0391L39.8796 63.2961L41.4237 63.4996L42.7829 63.6426L43.9568 63.7183L44.9451 63.7198L45.7469 63.6397L46.3603 63.4698L46.7816 63.2008L47.0054 62.8219L47.0349 62.327L46.8821 61.7154L46.557 60.9856L46.0678 60.1352L45.4212 59.1613L44.6234 58.0607L43.6805 56.8303L42.5991 55.4677L41.387 53.9711L40.0538 52.3406L38.6115 50.5784L37.0752 48.6897L35.464 46.6833L33.8012 44.5722L32.1145 42.3748L30.4368 40.1151L28.8053 37.8229L27.2611 35.5338L25.8484 33.2889L24.6124 31.1334L23.5972 29.1152L22.844 27.2827L22.3879 25.6821L22.2558 24.3548L22.464 23.3346L23.0174 22.6453L23.9082 22.2996L25.1169 22.2975L26.6134 22.6273L28.359 23.2659L30.3091 24.1813L32.4159 25.3345L34.631 26.6822L36.9079 28.1793L39.2037 29.781L41.4804 31.4449L43.706 33.132L45.8541 34.8078L47.9042 36.4425L49.8413 38.011L51.6548 39.4926L53.3382 40.8707L54.8883 42.1322L56.3043 43.2666L57.5872 44.2654L58.7392 45.1216L59.7633 45.8291L60.6626 46.3817L61.4401 46.773L62.0986 46.9955L62.6399 47.0399L63.0649 46.8949L63.3763 46.5515L63.5845 46.0141L63.6993 45.287L63.7294 44.3729L63.6824 43.273L63.5654 41.9876L63.3851 40.5172L63.1486 38.8624L62.8629 37.0251L62.5363 35.0093L62.1775 32.8217L61.7967 30.4726L61.4054 27.9773L61.0165 25.3565L60.6447 22.6376L60.3057 19.8549L60.0167 17.0503L59.7954 14.2728L59.6595 11.578L59.6261 9.02639L59.7105 6.68122L59.9252 4.60571L60.2792 2.85963L60.7767 1.49561L61.417 0.555745L62.1941 0.068565L63.0969 0.0469738L64.1096 0.487319L65.2132 1.36974L66.3861 2.65974L67.6059 4.31076L68.8502 6.26744L70.0981 8.46914L71.3308 10.8534L72.5325 13.359L73.6905 15.9284L74.7952 18.5094L75.8401 21.0567L76.8214 23.5315L77.7379 25.9022L78.5902 28.1436L79.3805 30.2362L80.1123 32.1653L80.7897 33.9202L81.4178 35.4934L82.0018 36.8794L82.5473 38.0739L83.0601 39.0732L83.546 39.8735L84.0111 40.4702L84.4614 40.8568L84.9034 41.0249L85.3437 40.965L85.7892 40.6816L86.2464 40.1844L86.7216 39.4807L87.2209 38.5759L87.75 37.4742L88.315 36.1793L88.9213 34.695L89.5745 33.026L90.2797 31.179L91.0415 29.163L91.8638 26.9906L92.7495 24.6789L93.6999 22.2503L94.7147 19.7333L95.7915 17.1631L96.925 14.582L98.1072 12.0391L99.3269 9.58937L100.57 7.29267L101.818 5.21116L103.052 3.40679L104.251 1.93786L105.39 0.855589L106.449 0.200595L107.406 0L108.245 0.265323L108.952 0.991533L109.518 2.15737L109.94 3.7269L110.221 5.65211L110.366 7.87619L110.387 10.3372L110.298 12.9713L110.116 15.7166L109.857 18.5148L109.539 21.3136L109.181 24.0677L108.798 26.7392L108.407 29.2974L108.019 31.7186L107.649 33.985L107.305 36.0839L106.999 38.0071L106.738 39.7494L106.53 41.3081L106.382 42.6819L106.301 43.8705L106.293 44.8735L106.366 45.6902L106.529 46.3186L106.79 46.7554L107.159 46.9951L107.645 47.0396L108.247 46.9009L108.968 46.5892L109.809 46.1128L110.773 45.4786L111.863 44.6926L113.083 43.7612L114.435 42.6906L115.921 41.4887L117.541 40.1648L119.293 38.7308L121.172 37.2015L123.17 35.5957L125.274 33.9361L127.465 32.2503L129.721 30.5707L132.012 28.9342L134.303 27.3816L136.553 25.9569L138.718 24.7053L140.749 23.671L142.598 22.8957L144.219 22.4149L145.569 22.2562L146.615 22.437L147.331 22.9629L147.705 23.8273L147.734 25.0116L147.43 26.4864L146.815 28.2136L145.92 30.149L144.784 32.2449L143.45 34.453L141.963 36.7264L140.368 39.0219L138.707 41.3012L137.021 43.5317L135.343 45.6866L133.703 47.745L132.129 49.6914L130.64 51.5148L129.252 53.2087L127.981 54.7693L126.836 56.1959L125.826 57.4892L124.958 58.6514L124.239 59.6855L123.674 60.5945L123.269 61.3816L123.033 62.0494L122.974 62.6L123.103 63.0342L123.431 63.3543L123.953 63.5702L124.665 63.6922L125.565 63.7287L126.65 63.6876L127.921 63.5759L129.377 63.4005L131.017 63.1681L132.84 62.8862L134.842 62.5625L137.016 62.2059L139.353 61.8265L141.838 61.4356L144.45 61.0461L147.162 60.6723L149.941 60.3302L152.746 60.0365L155.528 59.8092L158.232 59.6659L160.797 59.6237L163.161 59.6982L165.261 59.9022L167.035 60.2448L168.432 60.7308L169.407 61.3599L169.931 62.1264L169.989 63.0195L169.585 64.0241L168.737 65.1212L167.478 66.2893L165.853 67.5061L163.919 68.7491L161.734 69.9973L159.362 71.2318L156.863 72.4364L154.297 73.5981L151.715 74.7072L149.163 75.7569L146.681 76.7434L144.301 77.665L142.048 78.5222L139.943 79.3173L138 80.0535L136.231 80.735L134.643 81.3668L133.242 81.954L132.032 82.5024L131.017 83.0175L130.2 83.5054L129.587 83.9718L129.184 84.423L128.998 84.8654L128.986 85.0055Z" fill="#FECED6"/>
</svg>
