<svg width="710" height="443" viewBox="0 0 710 443" fill="none" xmlns="http://www.w3.org/2000/svg">
<path d="M36.4739 30.958C35.6841 33.9199 32.7764 39.1384 35.977 41.6811C38.2071 43.4528 41.4242 41.0364 42.6106 39.0873C44.8764 35.3648 43.9837 29.9554 39.3112 28.722C37.1328 28.147 35.1381 30.0035 34.1484 31.6736" stroke="#4600FB" stroke-width="4" stroke-linecap="round"/>
<path d="M44.9694 28.6318C43.5117 25.1026 46.5506 20.3286 48.4576 17.4219C51.8797 12.2057 55.4282 7.61888 60.7458 4.20944C63.7579 2.27821 68.933 0.822444 70.7384 5.17341C72.649 9.77812 70.727 16.0764 69.1036 20.4728C65.9324 29.0606 58.801 40.2363 48.5023 40.4927C47.9629 40.5062 44.8818 39.9891 46.8824 40.3188C49.624 40.7707 51.9018 41.8815 54.1818 43.4542C61.8332 48.7323 67.2086 57.6031 67.1458 67.017C67.1143 71.7439 66.4507 77.1729 62.6191 80.4382C58.9443 83.5697 54.4068 83.7974 49.9483 82.4108C44.8007 80.81 40.949 77.9823 38.306 73.2481C35.4791 68.1844 34.2107 62.3545 33.9184 56.6021C33.7179 52.6563 33.8654 48.6569 34.3159 44.7313C34.6121 42.1502 32.8153 47.4652 32.7358 47.6977C30.2212 55.0481 26.8839 63.9709 18.2265 65.3822C14.8418 65.934 10.861 65.7636 8.17923 63.3847C5.04812 60.6072 3.2898 56.7273 2.92207 52.6021C2.16775 44.1399 6.91408 36.6307 14.9171 33.8095C20.4043 31.8752 26.7807 32.1719 32.2588 34.048C32.9034 34.2688 32.4508 34.1326 32.1097 33.9884C30.9465 33.4967 29.8213 32.9095 28.701 32.3287C25.082 30.4525 21.6043 28.3683 18.5246 25.6703C13.877 21.5989 7.95565 13.6113 13.2078 7.70261C17.9471 2.37088 26.962 7.08308 31.424 10.1871C34.5262 12.3451 37.1253 15.0905 38.947 18.4256C40.6953 21.6265 41.0734 25.3877 41.8389 28.9002" stroke="#4600FB" stroke-width="4" stroke-linecap="round"/>
<path d="M55.2188 105.133C60.6473 105.481 66.151 106.137 71.586 106.16C78.7295 106.189 85.8364 105.298 92.9889 105.379C99.1996 105.45 105.343 106.19 111.571 106.026C119.527 105.818 127.488 105.023 135.414 104.319C139.498 103.956 143.369 103.34 147.206 101.864C149.842 100.851 152.449 99.0208 155.257 98.5429C157.421 98.1745 163.902 97.209 161.706 97.209" stroke="#4600FB" stroke-width="4" stroke-linecap="round"/>
<path d="M52.4594 103.693C50.1142 108.731 47.6001 113.721 45.4429 118.846C43.8093 122.727 42.6467 126.795 41.868 130.931C41.5756 132.485 41.4522 133.849 41.828 135.373C43.366 141.614 51.3697 134.617 53.3264 132.732C54.3155 131.779 64.9665 120.858 65.1984 121.26C66.1265 122.871 64.4257 126.874 64.1179 128.437C63.6963 130.577 62.6223 134.769 64.3113 136.607C66.303 138.775 69.3654 135.358 70.5941 134.106C73.586 131.058 76.2984 127.316 79.5981 124.635C81.1204 123.398 82.6697 123.227 83.2264 125.422C84.0215 128.557 83.8825 131.834 85.2607 134.833C88.7237 142.37 96.6249 131.303 98.6466 128.043C99.117 127.285 100.882 124.093 102.222 125.075C103.206 125.797 103.609 127.915 103.996 128.917C105.044 131.636 106.119 135.112 108.378 137.121C110.048 138.606 112.88 138.436 114.74 137.441C117.388 136.025 118.429 132.994 119.929 130.585C120.382 129.857 121.606 126.724 122.811 126.97C124.346 127.282 125.793 130.469 126.692 131.665C128.939 134.65 133.817 141.25 137.791 136.254C139.606 133.971 140.49 130.59 141.272 127.837C141.64 126.541 142.296 123.104 144.38 123.842C146.536 124.604 147.93 126.646 149.429 128.237C151.733 130.682 154.734 132.604 157.746 134.073C161.378 135.843 164.863 134.792 166.137 130.891C167.74 125.982 166.428 119.611 165.056 114.811C164.295 112.148 163.126 109.606 162.208 106.994C160.983 103.507 160.577 100.306 160.387 96.6094" stroke="#4600FB" stroke-width="4" stroke-linecap="round"/>
<path d="M414.918 302.278C414.289 301.76 413.554 301.282 412.781 301.013C412.263 300.832 411.295 300.65 410.763 300.74C409.405 300.968 408.056 301.75 407.026 302.603C405.623 303.766 403.81 305.798 403.033 307.491C402.526 308.594 402.281 309.988 403.212 310.972C403.86 311.658 405.523 311.992 406.358 312.047C407.606 312.128 409.024 311.864 410.246 311.666C411.203 311.51 412.542 311.202 413.534 311.258C414.545 311.316 415.901 311.671 416.689 312.355C417.601 313.146 418.148 314.459 418.069 315.664C417.976 317.084 417.09 318.628 416.111 319.6C415.078 320.625 413.236 321.623 411.847 322.026C410.603 322.387 409.047 322.482 407.788 322.072C406.924 321.79 406.052 321.063 405.496 320.353C404.526 319.113 405.457 320.034 404.88 318.976" stroke="#4600FB" stroke-width="4" stroke-linecap="round"/>
<path d="M442.696 296.934C441.925 296.368 441.18 295.81 440.281 295.458C439.18 295.028 437.946 294.883 436.769 294.926C434.825 294.997 432.904 295.462 431.134 296.269C429.846 296.856 428.652 297.595 428.014 298.904C427.645 299.66 427.432 300.625 427.288 301.449C427.118 302.421 427.069 303.412 427.095 304.398C427.143 306.199 427.379 308.116 427.971 309.825C428.687 311.889 429.974 313.761 431.938 314.813C432.861 315.307 433.895 315.575 434.923 315.735C436.144 315.925 437.45 316.012 438.68 315.853C439.932 315.691 440.916 315.226 441.859 314.397C442.752 313.611 443.543 312.663 444.296 311.744C444.89 311.017 445.547 310.264 445.556 309.294" stroke="#4600FB" stroke-width="4" stroke-linecap="round"/>
<path d="M452.547 289.744C455.245 295.791 457.471 302.021 459.25 308.403C459.28 308.51 460.004 311.133 459.69 310.63" stroke="#4600FB" stroke-width="4" stroke-linecap="round"/>
<path d="M450.456 281.055C450.499 280.889 450.741 279.868 451.127 280.086C451.696 280.408 450.882 281.375 450.512 281.518C450.15 281.658 449.933 280.685 450.545 280.909" stroke="#4600FB" stroke-width="4" stroke-linecap="round"/>
<path d="M466.862 297.599C470.392 296.749 474.009 296.26 477.509 295.303C479.681 294.71 484.659 293.285 483.616 289.975C482.526 286.515 478.937 285.054 475.59 285.076C473.619 285.09 471.515 285.553 470.058 286.975C468.648 288.351 468.092 290.453 467.583 292.284C466.523 296.098 465.906 300.589 468.395 304.02C470.171 306.467 472.904 306.924 475.716 306.624C477.79 306.404 480.173 305.852 481.809 304.473C482.782 303.654 483.551 302.481 484.219 301.415C484.433 301.074 484.938 300.447 484.825 299.979" stroke="#4600FB" stroke-width="4" stroke-linecap="round"/>
<path d="M491.441 280.002C492.223 282.655 493.471 285.142 494.233 287.81C495.173 291.097 495.765 294.486 496.831 297.735C497.125 298.63 497.385 299.518 497.606 300.433C497.643 300.589 497.811 301.866 497.496 301.239C496.94 300.133 496.955 298.688 496.554 297.499C495.569 294.578 495.082 291.203 495.539 288.131C495.806 286.336 496.528 284.724 497.325 283.111C497.911 281.925 498.544 280.811 499.56 279.93C500.532 279.087 501.832 278.204 503.18 278.43C505.065 278.746 506.658 280.019 507.686 281.609C510.253 285.579 510.738 290.331 512.487 294.633C512.855 295.538 513.269 296.478 513.751 297.33C513.871 297.542 514.018 297.805 514.251 297.859" stroke="#4600FB" stroke-width="4" stroke-linecap="round"/>
<path d="M538.643 274.343C538.162 273.612 536.995 273.165 536.246 272.816C534.158 271.842 531.786 271.617 529.504 271.811C527.211 272.006 524.786 273.796 523.593 275.747C522.368 277.749 522.154 279.907 522.493 282.208C523.042 285.934 524.269 289.064 527.157 291.574C528.649 292.87 529.916 293.365 531.863 293.117C533.766 292.875 535.466 292.078 536.88 290.798C537.601 290.145 538.131 289.343 538.684 288.548C539.335 287.614 540.082 286.682 540.612 285.669C540.685 285.53 540.957 284.462 541.099 285.054" stroke="#4600FB" stroke-width="4" stroke-linecap="round"/>
<path d="M548.693 277.388C553.881 276.138 558.879 274.189 564.059 272.941C564.992 272.716 566.995 272.464 566.369 271.184C564.876 268.133 562.605 265.792 559.147 265.153C555.929 264.559 552.029 265.812 550.255 268.69C548.648 271.297 548.11 275.191 548.649 278.178C548.94 279.789 549.713 281.183 550.628 282.525C551.748 284.169 552.907 285.441 554.844 286.078C558.062 287.135 562.634 286.686 565.312 284.529C566.478 283.59 567.346 282.39 568.263 281.223C568.371 281.086 568.771 280.35 568.963 280.578" stroke="#4600FB" stroke-width="4" stroke-linecap="round"/>
<path d="M460.679 320.707C459.736 320.603 458.573 320.841 457.691 321.137C455.828 321.762 454.908 323.325 454.682 325.202C454.246 328.821 455.096 332.076 455.938 335.574C456.917 339.637 458.378 343.618 459.649 347.598C460.128 349.098 460.706 350.571 461.144 352.082C461.298 352.614 461.714 354.393 461.312 352.725" stroke="#4600FB" stroke-width="4" stroke-linecap="round"/>
<path d="M449.547 334.319C453.907 332.922 458.439 332.452 462.898 331.476" stroke="#4600FB" stroke-width="4" stroke-linecap="round"/>
<path d="M478.669 326.807C476.543 327.673 474.331 328.726 473.201 330.864C472.705 331.804 472.623 333.009 472.463 334.044C472.255 335.386 472.248 336.696 472.337 338.049C472.397 338.949 472.495 339.838 472.645 340.728C472.875 342.099 472.952 343.801 473.826 344.943C475.998 347.781 479.638 350.503 483.401 349.226C485.695 348.448 488.234 346.548 489.333 344.375C490.723 341.624 489.926 338.469 489.106 335.672C488.416 333.317 486.504 330.873 484.448 329.542C483.735 329.08 482.991 328.462 482.152 328.259C481.639 328.136 481.148 328.002 480.652 327.82" stroke="#4600FB" stroke-width="4" stroke-linecap="round"/>
<path d="M499.004 322.529C499.309 323.572 499.724 324.575 500.113 325.588C501.059 328.046 501.788 330.535 502.405 333.096C502.934 335.293 503.358 337.511 503.888 339.708C504.014 340.23 504.139 340.752 504.265 341.274C504.27 341.296 504.426 342.042 504.309 341.684C504.084 341 504.01 340.273 503.842 339.575C503.687 338.93 503.385 338.328 503.183 337.698C502.62 335.945 502.183 334.31 502.29 332.447C502.456 329.559 503.325 326.445 504.81 323.946C505.828 322.234 507.439 320.762 509.496 320.567C509.707 320.547 510.942 320.602 510.27 320.312" stroke="#4600FB" stroke-width="4" stroke-linecap="round"/>
<path d="M526.355 305.631C528.545 314.043 530.632 322.556 533.412 330.795C533.928 332.328 534.348 333.89 534.87 335.419C535.05 335.944 535.163 336.004 535.033 335.463" stroke="#4600FB" stroke-width="4" stroke-linecap="round"/>
<path d="M532.669 327.711C533.302 326.986 533.988 326.307 534.611 325.573C535.864 324.096 536.838 322.437 537.847 320.791C539.497 318.101 540.971 315.258 542.844 312.714" stroke="#4600FB" stroke-width="4" stroke-linecap="round"/>
<path d="M533.023 327.127C534.982 326.676 536.939 326.345 538.941 326.743C541.646 327.281 544.561 328.153 546.858 329.729C547.239 329.99 550.031 332.378 550.054 332.34" stroke="#4600FB" stroke-width="4" stroke-linecap="round"/>
<path d="M556.729 308.995C558.024 314.371 559.109 319.843 560.674 325.145C561.089 326.549 561.47 327.978 561.914 329.373C561.979 329.578 562.255 330.389 562.087 329.69" stroke="#4600FB" stroke-width="4" stroke-linecap="round"/>
<path d="M554.119 299.19C553.945 299.565 553.73 300.062 553.326 300.251C552.7 300.544 553.172 299.157 553.425 298.944C553.784 298.641 554.17 298.887 554.265 299.279" stroke="#4600FB" stroke-width="4" stroke-linecap="round"/>
<path d="M586.751 308.844C585.039 306.277 582.646 305.065 579.605 304.561C577.229 304.168 574.57 304.599 572.606 306.041C572.019 306.471 571.392 306.897 570.872 307.411C569.894 308.378 570.012 310.246 569.975 311.505C569.931 312.988 570.308 314.321 570.724 315.734C571.401 318.025 572.297 320.192 573.709 322.136C575.329 324.366 577.703 326.384 580.635 325.678C583.127 325.077 585.074 322.396 585.841 320.076C587.354 315.495 586.239 310.215 585.537 305.582C585.272 303.833 585.223 302.059 584.891 300.321C584.672 299.178 584.494 297.699 583.72 296.78" stroke="#4600FB" stroke-width="4" stroke-linecap="round"/>
<path d="M612.419 297.815C609.386 296.48 606.446 296.124 603.285 297.366C601.313 298.14 598.812 299.978 598.647 302.292C598.471 304.76 600.244 306.16 601.979 307.7C603.251 308.83 604.711 308.802 606.364 308.976C608.421 309.193 610.764 309.095 612.674 310.016C614.602 310.946 616.397 313.317 615.448 315.545C614.958 316.694 613.593 317.275 612.557 317.808C611.236 318.487 609.887 319.101 608.472 319.558C606.664 320.142 603.698 320.725 602.277 318.994C602.092 318.767 601.193 316.672 602.004 316.969" stroke="#4600FB" stroke-width="4" stroke-linecap="round"/>
<path d="M499.384 366.793C537.923 356.226 575.808 342.098 613.921 328.735C627.17 324.089 640.95 319.035 654.42 316.166C655.136 316.013 656.039 315.447 656.566 315.816C656.918 316.063 655.847 316.59 655.407 316.857C653.55 317.985 651.623 318.962 649.716 319.975C637.56 326.427 625.334 332.646 613.339 339.504C599.441 347.449 586.197 356.586 573.296 366.309C568.717 369.761 562.935 373.605 559.314 378.227C556.983 381.201 559.225 381.748 561.991 381.267C569.686 379.928 577.841 376.202 585.218 373.097C598.204 367.632 611.053 361.61 623.881 355.605C651.806 342.531 679.511 328.813 707.22 315.094" stroke="#4600FB" stroke-width="4" stroke-linecap="round"/>
</svg>
