<svg width="195" height="120" viewBox="0 0 195 120" fill="none" xmlns="http://www.w3.org/2000/svg">
<path d="M2 25.5122C12.2137 18.9161 46.7678 -8.41138 60.1127 6.27706C69.1983 16.2774 68.9216 28.1619 89.2113 22.0859C96.1696 20.0021 103.247 16.2122 111.155 17.6837C119.703 19.2742 123.086 26.3707 132.535 26.9435C141.668 27.4971 150.045 23.8755 157.831 20.7848C162.244 19.033 167.027 16.6966 171.859 15.5368C183.517 12.739 171.145 16.4321 182 14.973" stroke="white" stroke-width="3" stroke-linecap="round"/>
<path d="M12 113.186C20.292 104.255 35.2637 93.809 49.9001 101.915C59.1589 107.043 68.0495 121.543 81.605 117.199C89.2786 114.74 94.3816 109.903 101.032 106.355C111.569 100.733 114.403 106.519 123.29 110.24C132.087 113.924 141.257 110.063 150.257 109.13C159.68 108.153 167.835 109.702 177 110.88" stroke="white" stroke-width="3" stroke-linecap="round"/>
<path d="M159.957 103.57C160.352 98.3308 160.823 93.0596 160.823 87.8023" stroke="white" stroke-width="3" stroke-linecap="round"/>
<path d="M160.477 107.555C161.033 105.719 172.491 90.9199 172.316 90.8152C169.238 88.968 164.932 90.3222 162.902 87.1093" stroke="white" stroke-width="3" stroke-linecap="round"/>
<path d="M161.773 86.8118C163.72 79.9212 165.808 73.066 168.018 66.255C169.887 60.4939 172.21 54.9027 174.135 49.1624C174.864 46.9867 175.602 44.8262 176.177 42.6034C176.323 42.0405 176.67 42.4264 177.198 42.5077C179.369 42.8417 181.567 42.6315 183.743 42.4803C186.717 42.2737 193.463 41.5327 192.609 46.4914C192.204 48.8366 190.597 51.2093 189.505 53.2646C187.858 56.3622 186.105 59.3987 184.381 62.4536C180.167 69.9238 176.749 77.4534 173.834 85.499" stroke="white" stroke-width="3" stroke-linecap="round"/>
<path d="M16.1094 71.6549C23.838 70.0896 30.8432 65.8425 38.9168 65.5102C46.8077 65.1854 51.5042 72.9577 58.6519 75.1147C68.3302 78.0354 78.952 71.5935 88.1299 69.4129C95.955 67.5537 104.099 68.8335 112.017 69.4129" stroke="white" stroke-width="3" stroke-linecap="round"/>
</svg>
