<svg width="185" height="151" viewBox="0 0 185 151" fill="none" xmlns="http://www.w3.org/2000/svg">
<path d="M19.6397 7.01103C18.9307 51.5852 16.803 96.0417 15.5156 140.584" stroke="white" stroke-width="3" stroke-linecap="round"/>
<path d="M17.5769 6.55276C16.3311 14.3597 12.993 21.9963 10.7035 29.5405C10.4842 30.263 9.10311 34.6038 10.8435 30.457C12.7201 25.9855 14.3574 21.4186 16.2786 16.9647C16.8215 15.7062 25.3425 -4.19996 27.1488 3.95613C29.096 12.7486 27.9107 23.0127 28.1161 31.9844" stroke="white" stroke-width="3" stroke-linecap="round"/>
<path d="M2 122.255C2.61815 126.317 4.09674 130.297 5.25853 134.22C6.21042 137.434 7.29214 146.791 10.4518 148.96C14.2162 151.544 24.7787 127.172 26.2861 124.088" stroke="white" stroke-width="3" stroke-linecap="round"/>
<path d="M54.2227 130.194C66.4721 131.307 78.9197 130.735 91.194 130.51C107.516 130.211 123.885 130.896 140.192 130.122C150.048 129.653 160.457 129.077 170.028 126.496C171.56 126.083 175.913 125.187 176.789 123.26C177.713 121.227 172.553 118.916 171.524 118.426C166.804 116.176 161.402 115.254 156.333 114.11C150.728 112.846 164.583 116.081 165.425 116.369C170.152 117.989 180.187 120.722 182.558 125.878C184.504 130.111 167.816 136.297 165.568 137.444" stroke="white" stroke-width="3" stroke-linecap="round"/>
<path d="M85.2981 119.836C76.5332 119.935 68.2087 121.052 59.821 123.677C56.1204 124.835 50.6076 126.22 47.665 128.956C41.8027 134.408 64.5455 146.153 67.1721 147.802" stroke="white" stroke-width="3" stroke-linecap="round"/>
<path d="M66.3936 16.7763C67.7963 34.188 66.5379 51.7707 64.9838 69.1405C64.6984 72.3301 60.6383 89.3056 65.1277 91.7405C66.7983 92.6465 69.4733 92.252 71.2416 92.0426C76.4976 91.4201 81.6237 90.3611 86.9365 90.1724C101.264 89.6636 115.884 90.9009 130.166 91.9994C136.571 92.4921 143.383 94.401 149.802 94.2004C152.727 94.109 150.214 85.8008 149.817 84.4757C147.488 76.7151 144.982 69.2238 144.134 61.1132C143.638 56.3625 144.724 55.9195 149.399 55.6179C156.689 55.1476 163.979 54.5003 171.28 54.2368C172.714 54.1851 181.725 55.2702 182.285 53.0572C183.385 48.7139 179.969 42.7099 179.063 38.5563C177.494 31.366 177.474 24.053 176.963 16.7475C176.731 13.4353 176.275 10.3917 172.532 9.56905C164.665 7.84003 155.571 9.03458 147.616 9.26696C122.949 9.98745 97.9677 10.8089 73.3851 12.8922" stroke="white" stroke-width="3" stroke-linecap="round"/>
</svg>
