<svg width="231" height="213" viewBox="0 0 231 213" fill="none" xmlns="http://www.w3.org/2000/svg">
<g clip-path="url(#clip0_261_93)">
<path d="M82.5204 29.4693C93.3845 3.82802 129.873 4.25846 140.129 30.1489L165.729 94.7704C167.095 98.219 169.066 101.396 171.55 104.151L214.658 151.967C234.484 173.958 215.31 208.599 186.148 203.475L117.591 191.43C113.994 190.798 110.315 190.803 106.72 191.447L43.1176 202.828C13.7565 208.081 -5.47256 173.025 14.7377 151.088L41.17 122.398C43.5926 119.768 45.5441 116.741 46.939 113.449L82.5204 29.4693Z" fill="#229432"/>
<ellipse cx="113.744" cy="125.88" rx="38.6172" ry="38.7717" transform="rotate(-2.74774 113.744 125.88)" fill="#FDED1F"/>
</g>
<defs>
<clipPath id="clip0_261_93">
<rect width="231" height="212.321" fill="white"/>
</clipPath>
</defs>
</svg>
