<svg width="371" height="341" viewBox="0 0 371 341" fill="none" xmlns="http://www.w3.org/2000/svg">
<g clip-path="url(#clip0_261_93)">
<path d="M132.53 47.3295C149.978 6.14806 208.581 6.8393 225.053 48.4209L266.167 152.207C268.361 157.746 271.527 162.848 275.516 167.272L344.751 244.067C376.592 279.386 345.798 335.022 298.962 326.793L188.855 307.447C183.079 306.433 177.169 306.442 171.396 307.475L69.2464 325.753C22.0908 334.191 -8.79243 277.888 23.6664 242.656L66.1183 196.578C70.0092 192.355 73.1435 187.493 75.3837 182.205L132.53 47.3295Z" fill="#229432"/>
<ellipse cx="182.678" cy="202.171" rx="62.0216" ry="62.2697" transform="rotate(-2.74774 182.678 202.171)" fill="#FDED1F"/>
</g>
<defs>
<clipPath id="clip0_261_93">
<rect width="371" height="341" fill="white"/>
</clipPath>
</defs>
</svg>
