<svg width="189" height="64" viewBox="0 0 189 64" fill="none" xmlns="http://www.w3.org/2000/svg">
<path d="M115.178 45.5893C112.194 45.5893 109.81 44.7679 108.027 43.125C106.243 41.4639 105.352 39.2825 105.352 36.581C105.352 33.5325 106.48 31.1413 108.736 29.4071C111.011 27.673 114.15 26.806 118.153 26.806C120.155 26.806 122.311 27.0889 124.623 27.6548V26.9702C124.623 25.5282 124.131 24.4694 123.149 23.794C122.184 23.1187 120.646 22.781 118.536 22.781C117.062 22.781 115.633 22.9544 114.25 23.3012C113.285 23.5463 112.216 23.8964 111.042 24.3513C110.218 24.6709 109.28 24.2615 108.989 23.4264L107.691 19.7083C107.433 18.9664 107.779 18.1456 108.503 17.8417C110.247 17.1106 111.889 16.5757 113.431 16.2369C115.36 15.8171 117.526 15.6071 119.928 15.6071C124.222 15.6071 127.543 16.6202 129.891 18.6464C132.238 20.6544 133.412 23.5111 133.412 27.2167V43.6807C133.412 44.5231 132.729 45.206 131.887 45.206H126.253C125.66 45.206 125.171 44.7424 125.139 44.1505C125.087 43.1899 123.882 42.7009 123.079 43.2303C122.31 43.7372 121.469 44.1767 120.555 44.5488C118.827 45.2425 117.034 45.5893 115.178 45.5893ZM114.496 36.0607C114.496 37.0099 114.823 37.7583 115.478 38.306C116.152 38.8353 117.08 39.1 118.263 39.1C120.028 39.1 121.52 38.5798 122.739 37.5393C123.62 36.774 124.221 35.8847 124.542 34.8714C124.76 34.1797 124.289 33.494 123.585 33.3176C122.069 32.9376 120.668 32.7476 119.382 32.7476C116.124 32.7476 114.496 33.852 114.496 36.0607Z" fill="white"/>
<path d="M154.976 46C149.735 46 145.686 44.3206 142.829 40.9619C139.972 37.5849 138.543 32.7202 138.543 26.3679C138.543 23.3194 138.762 20.6452 139.199 18.3452C139.635 16.027 140.3 13.9917 141.191 12.2393C142.083 10.4687 143.257 8.97183 144.712 7.74881C146.186 6.52579 147.897 5.52183 149.844 4.7369C151.809 3.93373 154.129 3.29484 156.804 2.82024C159.716 2.29087 161.891 1.83452 163.328 1.45119C164.199 1.21108 165.024 0.941594 165.803 0.642747C166.631 0.325314 167.584 0.705195 167.902 1.53288L169.804 6.48766C170.081 7.20754 169.778 8.02478 169.081 8.35344C167.88 8.91909 166.654 9.39294 165.403 9.775C163.747 10.2861 161.445 10.7881 158.497 11.281C154.712 11.9198 152.019 12.9238 150.417 14.2929C149.891 14.737 149.431 15.2619 149.038 15.8678C148.219 17.1327 150.081 18.2269 151.453 17.6038C153.179 16.8203 155.154 16.4286 157.378 16.4286C161.381 16.4286 164.629 17.7885 167.122 20.5083C169.634 23.2099 170.889 26.6964 170.889 30.9679C170.889 35.4036 169.406 39.0179 166.44 41.8107C163.474 44.6036 159.652 46 154.976 46ZM147.988 30.8583C147.988 32.9028 148.616 34.5639 149.871 35.8417C151.145 37.1194 152.774 37.7583 154.757 37.7583C156.741 37.7583 158.36 37.1194 159.616 35.8417C160.872 34.5639 161.499 32.9028 161.499 30.8583C161.499 28.7774 160.872 27.098 159.616 25.8202C158.379 24.5425 156.759 23.9036 154.757 23.9036C152.737 23.9036 151.1 24.5425 149.844 25.8202C148.607 27.098 147.988 28.7774 147.988 30.8583Z" fill="white"/>
<path d="M67.1339 38.3817C66.9362 37.5489 67.4658 36.7255 68.2878 36.4867C69.8128 36.0435 70.8914 35.5023 71.5238 34.8631C72.3483 34.0295 72.8542 32.4828 73.0416 30.2229L74.1861 16.974C74.2542 16.1855 74.9142 15.5801 75.7056 15.5801H98.388C99.2304 15.5801 99.9132 16.2629 99.9132 17.1053V43.4795C99.9132 44.3218 99.2304 45.0047 98.388 45.0047H90.0753V25.8299C90.0753 24.9875 89.3924 24.3047 88.5501 24.3047H84.7364C83.9416 24.3047 83.2801 24.915 83.2162 25.7073L82.7109 31.9734C82.3548 36.1782 81.1274 39.2994 79.0287 41.337C77.1428 43.1679 74.2055 44.4753 70.2166 45.2593C69.4347 45.413 68.6832 44.9061 68.4991 44.1308L67.1339 38.3817Z" fill="white"/>
<path d="M19.7057 45.258C19.1651 45.258 18.6649 44.9718 18.3909 44.5059L12.7005 34.8285C12.4265 34.3625 11.9263 34.0764 11.3858 34.0764H11.3318C10.4895 34.0764 9.80661 34.7593 9.80661 35.6016V43.7328C9.80661 44.5751 9.12375 45.258 8.28139 45.258H1.52522C0.682862 45.258 0 44.5751 0 43.7328L0 17.1058C0 16.2634 0.682863 15.5806 1.52522 15.5806H8.28139C9.12375 15.5806 9.80661 16.2634 9.80661 17.1058V24.3402C9.80661 25.1825 10.4895 25.8654 11.3318 25.8654H11.5487C12.0915 25.8654 12.5935 25.5768 12.8667 25.1077L17.974 16.3382C18.2472 15.8691 18.7492 15.5806 19.292 15.5806H26.8658C28.0632 15.5806 28.7936 16.8971 28.1599 17.913L21.2 29.0708C20.8935 29.5621 20.8917 30.1846 21.1953 30.6777L28.7407 42.9331C29.3663 43.9493 28.6352 45.258 27.4419 45.258H19.7057Z" fill="white"/>
<ellipse cx="47.6545" cy="30.1454" rx="15.6311" ry="15.8544" fill="white"/>
<path d="M124 38C124 40.4974 124 42.9829 124 45.4841C124 49.2993 124 53.1285 124 56.9426C124 58.2899 124 59.6579 124 61" stroke="#4600FB" stroke-width="4" stroke-linecap="round"/>
<path d="M125 43.3095C125.771 42.4053 126.535 41.6096 127.528 40.9298C128.266 40.424 128.968 40.0482 129.87 40.0074C130.625 39.9732 131.419 40.0584 132.147 40.2593C133.806 40.7166 134.769 41.7929 135.403 43.3716C136.005 44.8694 136.185 46.3703 135.789 47.945C135.503 49.0771 134.912 50.206 134.143 51.0844C133.129 52.244 131.722 52.5266 130.279 52.8246C129.07 53.0743 127.762 53.1213 126.641 52.5339C126.172 52.2878 125.674 52.009 125.416 51.5417" stroke="#4600FB" stroke-width="4" stroke-linecap="round"/>
<path d="M147 31C147 33.3077 147 35.6054 147 37.9116C147 42.3949 147 46.8934 147 51.3813C147 52.9209 147 54.4604 147 56" stroke="#4600FB" stroke-width="4" stroke-linecap="round"/>
<path d="M167.659 43.6908C166.372 41.7292 165.016 40.2919 162.779 39.4623C161.803 39.1004 160.828 38.7936 159.821 39.1767C159.115 39.4456 158.512 39.8571 158.007 40.4239C156.799 41.7786 156.03 43.4808 156.042 45.3162C156.049 46.5507 156.332 47.7214 156.78 48.8647C157.166 49.8497 157.639 50.995 158.559 51.5925C159.569 52.2487 161.174 52.3757 162.33 52.1437C164.139 51.7809 165.192 50.4821 166.106 48.9613C166.997 47.4788 167.494 45.8558 167.861 44.1655C168.158 42.7981 167.919 41.4951 167.706 40.1423C167.678 39.9625 167.704 39.7292 167.655 39.5549C167.57 39.2567 167.499 40.1565 167.46 40.4641C167.203 42.4974 167.341 44.6101 167.389 46.6519C167.415 47.7863 167.432 48.9218 167.476 50.0556C167.526 51.3437 167.682 52.6401 167.607 53.93C167.491 55.9335 166.581 57.9793 165.455 59.6069C163.827 61.9606 160.323 62.5737 157.828 61.4656C156.966 61.0825 156.362 60.5411 156.042 59.6149C155.989 59.4631 155.952 59.193 156.153 59.2609" stroke="#4600FB" stroke-width="4" stroke-linecap="round"/>
<path d="M178 37C178.014 38.2669 178.087 39.5324 178.169 40.7962C178.329 43.2507 178.365 45.7075 178.485 48.1635C178.556 49.6265 178.554 51.0866 178.554 52.5509C178.554 54.7908 178.183 48.0372 178.554 45.8311C178.872 43.9369 179.356 42.0075 180.369 40.378C181.059 39.2682 182.162 37.9659 183.558 38.0255C184.159 38.0511 184.48 38.5851 184.946 38.882C185.647 39.328 186.305 39.3904 187 38.9544" stroke="#4600FB" stroke-width="4" stroke-linecap="round"/>
</svg>
