<svg width="237" height="234" viewBox="0 0 237 234" fill="none" xmlns="http://www.w3.org/2000/svg">
<rect x="24.2852" y="58" width="194.751" height="121.061" fill="#FFB432"/>
<path d="M78.5074 77.4713C21.9243 66.6152 -26.173 -14.1206 17.6195 6.85211C61.4119 27.8249 76.4583 62.6702 78.5074 77.4713Z" fill="#4600FB"/>
<path d="M161.467 78.334C172.784 21.8412 253.908 -25.5968 232.58 18.0233C211.251 61.6435 176.284 76.4055 161.467 78.334Z" fill="#4600FB"/>
<path d="M34.4805 120.834C54.3284 92.3229 146.824 50.1049 209.493 124.123C179.667 144.794 102.907 173.074 34.4805 120.834Z" fill="white"/>
<circle cx="123.142" cy="116.557" r="33.8841" fill="#8223A9"/>
<circle cx="113.115" cy="110.635" r="18.7514" fill="black"/>
<path d="M52.6602 179.062V215.581" stroke="black" stroke-width="3"/>
<path d="M102.336 179.062V215.581" stroke="black" stroke-width="3"/>
<path d="M144.605 179.062V215.581" stroke="black" stroke-width="3"/>
<path d="M196.59 179.062V215.581" stroke="black" stroke-width="3"/>
<path d="M65.902 204.393H48.631H41.0647V230.381H31.5245V226.927H35.6367V223.308H28.0703V233.836H43.3675L51.9207 223.308L54.388 233.836H65.902V204.393Z" fill="#229432"/>
<path d="M113.437 204.393H96.1662H88.5998V230.381H79.0597V226.927H83.1718V223.308H75.6055V233.836H90.9026L99.4559 223.308L101.923 233.836H113.437V204.393Z" fill="#229432"/>
<path d="M184.822 204.393H199.691H206.204V230.527H214.417V227.053H210.877V223.414H217.391V234H204.222L196.859 223.414L194.735 234H184.822V204.393Z" fill="#229432"/>
<path d="M134.49 204.393H149.359H155.872V230.527H164.085V227.053H160.545V223.414H167.059V234H153.89L146.526 223.414L144.402 234H134.49V204.393Z" fill="#229432"/>
<path d="M107.352 161.461C112.012 167.602 124.425 176.199 136.795 161.461" stroke="black" stroke-width="3"/>
</svg>
