<svg width="356" height="449" viewBox="0 0 356 449" fill="none" xmlns="http://www.w3.org/2000/svg">
<path d="M174.246 138.648C145.803 82.3828 100.077 -20.8619 144.714 16.2795C189.35 53.4209 183 113.334 174.246 138.648Z" fill="white"/>
<path d="M194.321 140.214C221.45 83.5451 265.559 -20.1967 224.971 18.1898C184.382 56.5763 187.626 115.534 194.321 140.214Z" fill="white"/>
<ellipse cx="271.813" cy="203.561" rx="52.4847" ry="64.0313" fill="#71F0F0"/>
<ellipse cx="178.039" cy="203.562" rx="76.2777" ry="93.4227" fill="#68E2E2"/>
<ellipse cx="76.5668" cy="195.512" rx="76.2777" ry="122.464" fill="#71F0F0"/>
<path d="M39.4805 325.675H102.57C104.764 352.22 96.1713 366.412 107.507 384.86C121.039 406.882 144.629 404.588 171.693 384.86C178.52 401.508 186.506 426.938 147.189 444.045C97.1477 465.818 76.6025 407.669 74.7738 384.86V444.045H39.4805V325.675Z" fill="#FDED1F"/>
<path d="M196.938 308.182H260.027C262.221 334.726 253.628 348.919 264.964 367.367C278.496 389.389 302.086 387.095 329.15 367.367C335.977 384.015 343.963 409.445 304.646 426.552C254.605 448.325 234.059 390.176 232.231 367.367V426.552H196.938V308.182Z" fill="#FDED1F"/>
<ellipse cx="273.562" cy="191.314" rx="5.94826" ry="6.29816" fill="black"/>
<ellipse cx="271.457" cy="189.215" rx="2.44929" ry="2.09939" fill="white"/>
<circle cx="295.603" cy="191.314" r="6.29816" fill="black"/>
<path d="M265.512 216.507C269.558 234.037 293.199 240.642 304.7 218.793" stroke="black" stroke-width="5"/>
<rect x="219.324" y="134.631" width="125.963" height="18.1947" rx="9.09734" fill="#FDED1F"/>
<rect x="249.418" y="112.237" width="66.4806" height="40.5882" rx="20.2941" fill="#FDED1F"/>
<ellipse cx="293.856" cy="189.216" rx="2.44929" ry="2.09939" fill="white"/>
<path d="M282.98 211.391L354.774 201.568" stroke="black" stroke-opacity="0.7" stroke-width="5"/>
</svg>
