<svg width="413" height="409" viewBox="0 0 413 409" fill="none" xmlns="http://www.w3.org/2000/svg">
<rect x="42.0273" y="101.113" width="340.596" height="211.722" fill="#FFB432"/>
<path d="M136.849 135.167C37.8925 116.181 -46.2238 -25.0157 30.3639 11.6631C106.952 48.3419 133.266 109.282 136.849 135.167Z" fill="#4600FB"/>
<path d="M281.938 136.674C301.729 37.8753 443.607 -45.088 406.306 31.1983C369.004 107.485 307.852 133.302 281.938 136.674Z" fill="#4600FB"/>
<path d="M59.8594 211.002C94.571 161.14 256.335 87.3063 365.936 216.756C313.772 252.906 179.528 302.365 59.8594 211.002Z" fill="white"/>
<circle cx="214.911" cy="203.523" r="59.2591" fill="#8223A9"/>
<circle cx="197.368" cy="193.166" r="32.7939" fill="black"/>
<path d="M91.6484 312.835V376.703" stroke="black" stroke-width="5"/>
<path d="M178.523 312.836V376.704" stroke="black" stroke-width="5"/>
<path d="M252.453 312.835V376.703" stroke="black" stroke-width="5"/>
<path d="M343.355 312.835V376.703" stroke="black" stroke-width="5"/>
<path d="M114.804 357.137H84.5988H71.3662V402.588H54.6816V396.547H61.8732V390.218H48.6406V408.629H75.3935L90.3521 390.218L94.6671 408.629H114.804V357.137Z" fill="#229432"/>
<path d="M197.94 357.136H167.736H154.503V402.587H137.818V396.546H145.01V390.217H131.777V408.628H158.53L173.489 390.217L177.804 408.628H197.94V357.136Z" fill="#229432"/>
<path d="M322.788 357.136H348.791H360.182V402.841H374.546V396.766H368.355V390.402H379.746V408.916H356.715L343.838 390.402L340.123 408.916H322.788V357.136Z" fill="#229432"/>
<path d="M234.761 357.137H260.763H272.155V402.842H286.518V396.767H280.327V390.403H291.719V408.917H268.688L255.811 390.403L252.096 408.917H234.761V357.137Z" fill="#229432"/>
<path d="M187.297 282.055C195.447 292.794 217.157 307.83 238.789 282.055" stroke="black" stroke-width="5"/>
</svg>
