<svg width="297" height="297" viewBox="0 0 297 297" fill="none" xmlns="http://www.w3.org/2000/svg">
<path fill-rule="evenodd" clip-rule="evenodd" d="M225.346 148.51V148.51L225.546 149.28L226.132 150.062L227.088 150.867L228.402 151.707L230.065 152.59L232.072 153.529L234.414 154.532L237.085 155.61L240.077 156.772L243.376 158.027L246.966 159.382L250.823 160.845L254.914 162.419L259.199 164.106L263.625 165.905L268.128 167.811L272.63 169.813L277.043 171.896L281.269 174.039L285.202 176.215L288.733 178.394L291.754 180.538L294.167 182.61L295.885 184.571L296.843 186.381L297 188.007L296.342 189.419L294.885 190.596L292.673 191.525L289.774 192.203L286.276 192.635L282.282 192.835L277.899 192.823L273.241 192.626L268.413 192.272L263.516 191.793L258.638 191.219L253.855 190.58L249.23 189.906L244.814 189.221L240.646 188.55L236.755 187.912L233.16 187.326L229.874 186.809L226.906 186.374L224.26 186.034L221.937 185.803L219.938 185.69L218.263 185.709L216.914 185.873L215.896 186.197L215.214 186.696L214.878 187.39L214.878 188.287L215.194 189.388L215.809 190.696L216.708 192.216L217.881 193.952L219.316 195.911L221.002 198.097L222.929 200.515L225.081 203.167L227.442 206.052L229.99 209.167L232.697 212.5L235.53 216.037L238.445 219.751L241.393 223.611L244.316 227.571L247.147 231.579L249.813 235.571L252.237 239.474L254.341 243.207L256.046 246.687L257.283 249.829L257.992 252.554L258.13 254.791L257.67 256.484L256.608 257.593L254.96 258.101L252.765 258.01L250.076 257.345L246.964 256.148L243.508 254.478L239.791 252.404L235.899 250.003L231.911 247.353L227.901 244.533L223.934 241.615L220.065 238.667L216.337 235.747L212.785 232.907L209.435 230.189L206.302 227.627L203.398 225.25L200.727 223.081L198.29 221.136L196.086 219.43L194.109 217.975L192.355 216.781L190.818 215.86L189.493 215.222L188.375 214.882L187.462 214.855L186.752 215.164L186.238 215.818L185.901 216.81L185.725 218.133L185.695 219.781L185.797 221.755L186.02 224.052L186.352 226.672L186.779 229.614L187.291 232.874L187.871 236.445L188.506 240.313L189.175 244.46L189.86 248.857L190.536 253.466L191.179 258.239L191.759 263.111L192.247 268.01L192.612 272.846L192.823 277.521L192.85 281.929L192.668 285.959L192.255 289.5L191.597 292.45L190.687 294.719L189.53 296.238L188.136 296.96L186.526 296.868L184.729 295.973L182.779 294.313L180.714 291.953L178.574 288.977L176.396 285.483L174.219 281.578L172.072 277.372L169.983 272.97L167.974 268.472L166.06 263.968L164.252 259.533L162.555 255.235L160.972 251.127L159.501 247.25L158.137 243.638L156.874 240.316L155.705 237.299L154.621 234.602L153.612 232.234L152.668 230.201L151.781 228.51L150.938 227.168L150.13 226.183L149.347 225.567L148.576 225.336L147.806 225.504L147.025 226.06L146.222 226.987L145.386 228.273L144.506 229.909L143.572 231.887L142.575 234.203L141.503 236.848L140.348 239.814L139.1 243.089L137.753 246.657L136.299 250.493L134.734 254.567L133.055 258.838L131.265 263.255L129.367 267.753L127.372 272.258L125.295 276.681L123.156 280.926L120.981 284.886L118.801 288.452L116.652 291.518L114.573 293.982L112.602 295.758L110.778 296.779L109.136 297L107.706 296.407L106.51 295.013L105.561 292.859L104.863 290.012L104.412 286.558L104.194 282.599L104.189 278.244L104.373 273.604L104.715 268.787L105.186 263.892L105.754 259.01L106.388 254.217L107.061 249.578L107.746 245.144L108.419 240.956L109.06 237.041L109.651 233.423L110.174 230.112L110.616 227.119L110.964 224.448L111.205 222.099L111.327 220.074L111.319 218.373L111.167 216.999L110.857 215.954L110.372 215.245L109.694 214.881L108.813 214.856L107.728 215.147L106.437 215.739L104.934 216.616L103.215 217.767L101.274 219.181L99.106 220.848L96.7066 222.756L94.073 224.891L91.2058 227.236L88.1089 229.769L84.7919 232.465L81.2707 235.288L77.5689 238.198L73.7194 241.146L69.7646 244.073L65.7576 246.913L61.7615 249.595L57.8486 252.041L54.0986 254.173L50.5952 255.912L47.4229 257.189L44.6618 257.942L42.3835 258.126L40.6457 257.714L39.4887 256.7L38.9327 255.098L38.9763 252.945L39.5972 250.293L40.7537 247.212L42.3889 243.781L44.4336 240.082L46.812 236.201L49.445 232.218L52.2548 228.208L55.1676 224.236L58.1159 220.357L61.04 216.617L63.8884 213.051L66.6179 209.683L69.1932 206.533L71.5857 203.611L73.7727 200.921L75.7363 198.466L77.4619 196.244L78.9376 194.249L80.1526 192.478L81.0961 190.924L81.7569 189.582L82.1214 188.448L82.1735 187.519L81.8927 186.793L81.2654 186.264L80.2998 185.914L79.0033 185.725L77.3803 185.684L75.4326 185.776L73.1611 185.99L70.5662 186.313L67.6494 186.734L64.4142 187.239L60.8678 187.815L57.0223 188.445L52.8965 189.113L48.5178 189.797L43.9232 190.475L39.1614 191.121L34.2936 191.707L29.3939 192.204L24.5489 192.58L19.8565 192.804L15.4229 192.847L11.3589 192.682L7.77476 192.288L4.77398 191.65L2.44737 190.76L0.866739 189.622L0.0798666 188.246L0.107031 186.653L0.939542 184.87L2.54054 182.931L4.84788 180.874L7.77878 178.738L11.2355 176.563L15.1118 174.384L19.2983 172.234L23.6885 170.14L28.1825 168.124L32.6903 166.202L37.1331 164.385L41.4445 162.68L45.5701 161.088L49.4666 159.608L53.1008 158.236L56.4477 156.965L59.4892 155.789L62.2121 154.698L64.6073 153.684L66.6673 152.736L68.3859 151.844L69.7563 150.998L70.77 150.188L71.4157 149.403L71.6782 148.632L71.5418 147.863L71.0162 147.083L70.1184 146.282L68.8606 145.449L67.2521 144.573L65.3001 143.644L63.011 142.652L60.3916 141.586L57.4504 140.438L54.1991 139.199L50.654 137.86L46.8379 136.415L42.781 134.859L38.5235 133.189L34.1159 131.408L29.6209 129.518L25.1132 127.531L20.6795 125.46L16.4168 123.325L12.4299 121.152L8.82775 118.971L5.7182 116.819L3.20242 114.732L1.3686 112.752L0.286016 110.915L0 109.258L0.528404 107.81L1.86013 106.595L3.95586 105.626L6.75095 104.908L10.1601 104.437L14.083 104.201L18.411 104.181L23.0328 104.35L27.8402 104.681L32.7325 105.143L37.6191 105.704L42.4219 106.334L47.0756 107.005L51.5277 107.689L55.7374 108.365L59.6746 109.009L63.3179 109.604L66.6532 110.133L69.6719 110.582L72.3696 110.938L74.7442 111.187L76.7951 111.32L78.5217 111.322L79.9225 111.182L80.9941 110.885L81.7302 110.416L82.1213 109.754L82.1728 108.889L81.9058 107.82L81.3379 106.545L80.4831 105.06L79.3534 103.358L77.9596 101.435L76.3124 99.286L74.4231 96.9053L72.3056 94.2906L69.9763 91.4421L67.4565 88.3635L64.7726 85.0638L61.9578 81.5584L59.0526 77.8702L56.1059 74.0314L53.1748 70.0835L50.3245 66.0788L47.6268 62.0796L45.1587 58.1576L42.9992 54.3918L41.2257 50.866L39.9099 47.6645L39.1131 44.8682L38.8822 42.5493L39.246 40.7668L40.2127 39.5627L41.769 38.9587L43.8807 38.9551L46.4951 39.5312L49.5448 40.6469L52.9518 42.2462L56.6325 44.2609L60.5024 46.6154L64.4803 49.2308L68.4911 52.0291L72.4688 54.936L76.3569 57.8836L80.1098 60.8113L83.6915 63.6672L87.0756 66.4074L90.2439 68.9959L93.185 71.4036L95.8932 73.6075L98.367 75.5893L100.608 77.3342L102.621 78.8301L104.41 80.0661L105.981 81.0316L107.34 81.7152L108.49 82.1039L109.436 82.1815L110.178 81.9281L110.722 81.3282L111.086 80.3893L111.286 79.1191L111.339 77.5221L111.257 75.6004L111.052 73.3548L110.738 70.7859L110.324 67.8948L109.825 64.6851L109.255 61.1633L108.628 57.3414L107.962 53.2374L107.279 48.8779L106.599 44.2993L105.95 39.5492L105.358 34.6877L104.853 29.7879L104.466 24.9355L104.229 20.2275L104.17 15.7696L104.318 11.6725L104.693 8.04645L105.311 4.99594L106.18 2.61292L107.299 0.97092L108.657 0.119787L110.234 0.0820661L112.003 0.851375L113.931 2.39302L115.981 4.64672L118.112 7.53115L120.285 10.9496L122.465 14.7961L124.619 18.9615L126.719 23.3389L128.742 27.8278L130.672 32.3371L132.497 36.7873L134.212 41.1109L135.813 45.2527L137.302 49.1685L138.682 52.8243L139.961 56.1946L141.144 59.2606L142.242 62.0091L143.262 64.4305L144.215 66.5173L145.111 68.2632L145.96 69.6614L146.772 70.7038L147.559 71.3793L148.331 71.6729L149.1 71.5683L149.879 71.0731L150.678 70.2045L151.508 68.9751L152.38 67.3944L153.304 65.4697L154.291 63.2073L155.351 60.6141L156.492 57.6984L157.724 54.4715L159.055 50.9495L160.492 47.1542L162.039 43.1155L163.699 38.8726L165.472 34.4752L167.353 29.9849L169.334 25.4756L171.399 21.033L173.53 16.7532L175.701 12.7407L177.882 9.10421L180.039 5.95186L182.132 3.38556L184.123 1.49476L185.972 0.350451L187.645 0L189.111 0.463535L190.345 1.73227L191.334 3.76905L192.072 6.51112L192.562 9.87457L192.816 13.7602L192.853 18.0596L192.697 22.6617L192.378 27.4578L191.926 32.3464L191.372 37.2361L190.746 42.0477L190.077 46.715L189.393 51.1844L188.716 55.4143L188.069 59.3737L187.469 63.0407L186.934 66.4007L186.478 69.4446L186.114 72.1677L185.856 74.5679L185.714 76.6443L185.7 78.3966L185.828 79.8234L186.112 80.9213L186.568 81.6844L187.214 82.1032L188.062 82.1809L189.115 81.9386L190.373 81.3941L191.842 80.5618L193.526 79.4537L195.431 78.0807L197.563 76.4533L199.925 74.5831L202.521 72.4833L205.352 70.1704L208.412 67.665L211.695 64.9933L215.185 62.1877L218.86 59.2883L222.689 56.3432L226.63 53.4088L230.633 50.5497L234.635 47.8373L238.567 45.3483L242.348 43.1615L245.896 41.3547L249.127 40.0001L251.959 39.1601L254.318 38.8829L256.145 39.1987L257.397 40.1175L258.049 41.6277L258.1 43.6967L257.568 46.2732L256.494 49.2908L254.93 52.6721L252.946 56.3338L250.615 60.1913L248.018 64.1631L245.231 68.1736L242.33 72.1557L239.383 76.0525L236.451 79.8173L233.588 83.4134L230.837 86.8137L228.235 89.9995L225.812 92.9587L223.591 95.6853L221.59 98.1775L219.826 100.437L218.31 102.468L217.053 104.274L216.065 105.862L215.358 107.237L214.946 108.404L214.843 109.366L215.069 110.124L215.641 110.684L216.554 111.061L217.798 111.274L219.369 111.338L221.265 111.266L223.485 111.071L226.028 110.764L228.894 110.358L232.079 109.866L235.577 109.3L239.375 108.677L243.458 108.015L247.799 107.332L252.362 106.651L257.101 105.998L261.956 105.4L266.857 104.887L271.717 104.49L276.44 104.24L280.922 104.166L285.053 104.296L288.72 104.653L291.821 105.251L294.26 106.1L295.963 107.199L296.879 108.538L296.981 110.099L296.275 111.854L294.793 113.77L292.593 115.811L289.755 117.937L286.375 120.109L282.559 122.289L278.414 124.446L274.05 126.551L269.566 128.58L265.055 130.518L260.597 132.352L256.261 134.075L252.102 135.685L248.167 137.183L244.489 138.572L241.095 139.858L238.004 141.049L235.229 142.153L232.781 143.179L230.668 144.137L228.894 145.037L227.468 145.889L226.397 146.704L225.691 147.492L225.367 148.265L225.346 148.51Z" fill="#FECED6"/>
</svg>
