<svg width="238" height="237" viewBox="0 0 238 237" fill="none" xmlns="http://www.w3.org/2000/svg">
<path fill-rule="evenodd" clip-rule="evenodd" d="M238 117.941V117.941L231.298 119.07L225.448 120.083L220.335 121L215.862 121.842L211.947 122.623L208.523 123.355L205.533 124.051L202.93 124.718L200.671 125.366L198.724 126.001L197.057 126.629L195.645 127.256L194.467 127.886L193.504 128.525L192.739 129.177L192.158 129.845L191.749 130.532L191.501 131.244L191.404 131.982L191.449 132.749L191.629 133.55L191.937 134.386L192.367 135.26L192.911 136.176L193.564 137.135L194.321 138.139L195.175 139.19L196.122 140.292L197.154 141.444L198.266 142.648L199.451 143.906L200.702 145.217L202.011 146.583L203.372 148.002L204.774 149.474L206.209 150.997L207.668 152.569L209.139 154.188L210.613 155.851L212.077 157.553L213.521 159.29L214.931 161.056L216.297 162.846L217.606 164.653L218.845 166.47L220.004 168.289L221.07 170.103L222.034 171.904L222.885 173.682L223.616 175.431L224.218 177.142L224.685 178.808L225.014 180.42L225.202 181.974L225.247 183.462L225.149 184.88L224.911 186.225L224.538 187.492L224.033 188.682L223.405 189.792L222.661 190.825L221.812 191.781L220.866 192.664L219.837 193.479L218.735 194.229L217.573 194.923L216.364 195.566L215.12 196.167L213.855 196.735L212.58 197.28L211.308 197.81L210.052 198.337L208.822 198.872L207.63 199.426L206.486 200.012L205.402 200.642L204.387 201.329L203.45 202.087L202.601 202.929L201.837 203.86L201.145 204.87L200.512 205.95L199.923 207.089L199.367 208.278L198.831 209.506L198.304 210.762L197.775 212.033L197.232 213.309L196.667 214.577L196.069 215.823L195.43 217.036L194.741 218.203L193.995 219.311L193.186 220.347L192.309 221.3L191.36 222.158L190.334 222.911L189.23 223.549L188.048 224.063L186.787 224.448L185.449 224.697L184.037 224.806L182.555 224.772L181.008 224.596L179.4 224.278L177.74 223.821L176.033 223.229L174.288 222.508L172.512 221.666L170.714 220.71L168.902 219.651L167.083 218.499L165.267 217.265L163.46 215.961L161.669 214.598L159.902 213.19L158.163 211.748L156.459 210.284L154.794 208.81L153.172 207.337L151.597 205.876L150.07 204.438L148.595 203.032L147.173 201.667L145.804 200.353L144.489 199.096L143.228 197.905L142.02 196.787L140.864 195.747L139.759 194.793L138.704 193.931L137.697 193.166L136.735 192.504L135.817 191.95L134.94 191.512L134.101 191.194L133.298 191.003L132.528 190.946L131.788 191.032L131.076 191.268L130.386 191.664L129.717 192.231L129.065 192.981L128.426 193.929L127.795 195.089L127.168 196.482L126.541 198.129L125.907 200.054L125.261 202.288L124.596 204.864L123.903 207.823L123.174 211.212L122.398 215.087L121.562 219.516L120.652 224.577L119.648 230.367L118.53 237L117.392 231.364L116.371 225.448L115.447 220.277L114.6 215.754L113.816 211.795L113.08 208.332L112.382 205.308L111.713 202.674L111.065 200.388L110.429 198.416L109.801 196.727L109.175 195.295L108.545 194.099L107.907 193.118L107.257 192.338L106.591 191.743L105.906 191.32L105.197 191.059L104.461 190.95L103.697 190.985L102.899 191.154L102.066 191.453L101.195 191.873L100.284 192.408L99.3293 193.053L98.3293 193.802L97.282 194.65L96.1854 195.589L95.0379 196.616L93.8383 197.722L92.5855 198.902L91.279 200.149L89.9187 201.455L88.5047 202.812L87.0379 204.212L85.5196 205.646L83.9518 207.103L82.3371 208.575L80.6787 210.05L78.9805 211.516L77.2471 212.962L75.4838 214.377L73.6965 215.747L71.8916 217.062L70.0761 218.308L68.2576 219.474L66.4438 220.548L64.6429 221.521L62.8631 222.382L61.1125 223.123L59.3991 223.736L57.7307 224.215L56.1145 224.555L54.557 224.754L53.0642 224.81L51.6409 224.724L50.2912 224.497L49.018 224.134L47.823 223.639L46.7067 223.02L45.6686 222.285L44.7069 221.443L43.8184 220.504L42.9992 219.481L42.244 218.384L41.5466 217.225L40.8998 216.019L40.2958 214.777L39.7258 213.512L39.1805 212.237L38.6497 210.964L38.1231 209.705L37.5894 208.472L37.0373 207.276L36.4547 206.127L35.829 205.037L35.1474 204.016L34.3962 203.072L33.5613 202.215L32.638 201.445L31.6345 200.747L30.5605 200.109L29.4259 199.517L28.2409 198.959L27.0163 198.421L25.7632 197.894L24.4931 197.365L23.218 196.823L21.9501 196.26L20.702 195.665L19.4865 195.028L18.3163 194.343L17.204 193.602L16.1622 192.798L15.2028 191.926L14.3372 190.982L13.576 189.962L12.9288 188.864L12.4042 187.687L12.0092 186.432L11.7496 185.099L11.6295 183.693L11.6514 182.215L11.8161 180.672L12.1227 179.068L12.5687 177.411L13.1498 175.707L13.8602 173.963L14.6928 172.189L15.6392 170.391L16.6899 168.579L17.8345 166.76L19.0618 164.942L20.3602 163.133L21.7177 161.34L23.1221 159.569L24.5612 157.827L26.0231 156.119L27.496 154.45L28.9685 152.824L30.4298 151.244L31.8694 149.713L33.2777 148.233L34.6452 146.805L35.9635 145.431L37.2244 144.111L38.4203 142.845L39.5443 141.632L40.5896 140.472L41.55 139.362L42.4194 138.303L43.1921 137.291L43.8623 136.326L44.4243 135.403L44.8722 134.523L45.1998 133.681L45.4008 132.875L45.4682 132.102L45.3943 131.359L45.1707 130.644L44.788 129.953L44.2353 129.282L43.5007 128.628L42.5701 127.987L41.4275 127.356L40.0546 126.729L38.43 126.101L36.5288 125.468L34.322 124.823L31.7759 124.159L28.8507 123.468L25.4996 122.742L21.6671 121.97L17.2876 121.139L12.2825 120.235L6.55776 119.239L0 118.13L4.56535 116.983L10.5421 115.954L15.7653 115.022L20.335 114.169L24.334 113.38L27.832 112.64L30.8874 111.939L33.5496 111.268L35.8605 110.618L37.8557 109.981L39.5655 109.353L41.0162 108.726L42.23 108.096L43.2262 107.459L44.0217 106.81L44.6309 106.145L45.0666 105.46L45.3398 104.753L45.4604 104.02L45.4371 103.257L45.2779 102.462L44.9899 101.631L44.5796 100.763L44.0534 99.8545L43.417 98.9029L42.6764 97.9061L41.8371 96.862L40.905 95.7688L39.8861 94.6249L38.7865 93.4288L37.6127 92.1797L36.3717 90.8768L35.0709 89.52L33.7181 88.1095L32.3219 86.6461L30.8912 85.1311L29.4357 83.5663L27.9656 81.9544L26.4916 80.2985L25.025 78.6024L23.5773 76.8708L22.1605 75.1087L20.7868 73.3221L19.4682 71.5174L18.217 69.7015L17.0448 67.882L15.9631 66.0666L14.9823 64.2635L14.1125 62.4807L13.3623 60.7266L12.7394 59.0091L12.2498 57.336L11.8985 55.7145L11.6884 54.1513L11.621 52.6523L11.696 51.2226L11.9116 49.8662L12.264 48.5861L12.7481 47.3842L13.3571 46.2611L14.0829 45.2163L14.9164 44.2481L15.8471 43.3535L16.8639 42.5285L17.9551 41.768L19.1082 41.0658L20.3107 40.415L21.5498 39.8076L22.8127 39.2349L24.0869 38.6877L25.3599 38.1559L26.6197 37.629L27.8546 37.0961L29.0534 36.5456L30.2052 35.9655L31.2996 35.3434L32.3266 34.6664L33.2765 33.9208L34.14 33.0927L34.9163 32.1756L35.6186 31.1776L36.2607 30.1083L36.8556 28.9776L37.4161 27.7956L37.9544 26.5731L38.482 25.3212L39.0103 24.0514L39.5499 22.7755L40.111 21.506L40.7032 20.2552L41.3354 19.036L42.0159 17.861L42.752 16.7431L43.5502 15.6947L44.4161 14.7278L45.3541 13.8539L46.3676 13.0836L47.4588 12.4267L48.6288 11.8917L49.8773 11.486L51.2029 11.2153L52.6031 11.0839L54.0742 11.0944L55.6117 11.2479L57.2099 11.5434L58.8625 11.9786L60.5623 12.5494L62.3019 13.2502L64.0733 14.0738L65.8684 15.012L67.6789 16.0553L69.4968 17.1934L71.3141 18.4151L73.1231 19.709L74.9168 21.0629L76.6885 22.4648L78.432 23.9023L80.1419 25.3636L81.8134 26.8368L83.4424 28.3105L85.0255 29.7739L86.5597 31.2164L88.0431 32.6282L89.4741 34L90.8516 35.3232L92.1752 36.5896L93.445 37.7916L94.6615 38.9221L95.8254 39.9745L96.9381 40.9424L98.001 41.8198L99.0158 42.6008L99.9846 43.2797L100.91 43.8508L101.793 44.3082L102.638 44.6458L103.446 44.8573L104.221 44.9356L104.966 44.8733L105.682 44.6618L106.375 44.2919L107.047 43.7529L107.702 43.0329L108.343 42.1179L108.975 40.9923L109.602 39.6378L110.229 38.0332L110.861 36.1541L111.505 33.9717L112.167 31.4527L112.854 28.5578L113.577 25.2407L114.344 21.4469L115.17 17.1113L116.067 12.1566L117.055 6.49013L118.153 0L119.306 3.49963L120.343 9.54439L121.281 14.8265L122.139 19.4474L122.933 23.4912L123.676 27.0287L124.379 30.1191L125.052 32.8124L125.703 35.1511L126.34 37.1713L126.969 38.9038L127.595 40.3749L128.224 41.6075L128.86 42.6209L129.508 43.4323L130.171 44.0562L130.854 44.5055L131.559 44.7914L132.29 44.9239L133.05 44.9118L133.842 44.763L134.669 44.4849L135.533 44.0839L136.438 43.5664L137.386 42.9383L138.378 42.2053L139.418 41.3733L140.507 40.4479L141.646 39.4351L142.837 38.3411L144.081 37.1724L145.379 35.9358L146.731 34.6388L148.137 33.2892L149.595 31.8953L151.105 30.4663L152.665 29.0117L154.273 27.5416L155.924 26.0667L157.616 24.5983L159.345 23.1479L161.103 21.7275L162.887 20.3491L164.69 19.0251L166.504 17.7674L168.323 16.5879L170.138 15.498L171.941 14.5083L173.725 13.6288L175.481 12.8684L177.201 12.2348L178.877 11.7342L180.502 11.3715L182.069 11.1499L183.573 11.0711L185.007 11.1349L186.369 11.3395L187.654 11.6813L188.862 12.1554L189.991 12.755L191.041 13.4723L192.015 14.298L192.915 15.2218L193.745 16.2328L194.51 17.319L195.216 18.4683L195.87 19.6679L196.48 20.9052L197.055 22.1674L197.604 23.4418L198.136 24.716L198.663 25.9779L199.195 27.2159L199.743 28.4186L200.32 29.5751L200.938 30.675L201.61 31.7083L202.349 32.6652L203.17 33.5363L204.079 34.3196L205.071 35.0276L206.134 35.6743L207.26 36.2728L208.437 36.8359L209.656 37.3758L210.906 37.9042L212.174 38.4323L213.449 38.9709L214.719 39.5302L215.971 40.1199L217.193 40.7489L218.371 41.4256L219.493 42.1574L220.547 42.9509L221.52 43.8117L222.402 44.7443L223.18 45.7522L223.846 46.8378L224.391 48.002L224.807 49.2449L225.088 50.5652L225.231 51.9603L225.232 53.4267L225.09 54.9599L224.805 56.5544L224.381 58.2037L223.822 59.9009L223.131 61.6385L222.318 63.4086L221.389 65.2031L220.354 67.0136L219.224 68.8322L218.009 70.6507L216.721 72.4617L215.372 74.2577L213.974 76.0323L212.54 77.7792L211.081 79.4928L209.609 81.1685L208.135 82.8018L206.672 84.3895L205.228 85.9286L203.814 87.4168L202.439 88.8527L201.113 90.2352L199.842 91.5639L198.635 92.8386L197.5 94.0599L196.441 95.2287L195.467 96.3459L194.583 97.4133L193.794 98.4324L193.107 99.4053L192.528 100.334L192.061 101.221L191.714 102.069L191.492 102.881L191.403 103.659L191.454 104.406L191.653 105.126L192.01 105.82L192.535 106.494L193.24 107.15L194.138 107.793L195.246 108.426L196.58 109.053L198.163 109.68L200.019 110.312L202.175 110.955L204.664 111.616L207.526 112.301L210.806 113.021L214.558 113.785L218.845 114.606L223.745 115.498L229.348 116.478L235.764 117.567L238 117.941Z" fill="#71F0F0"/>
</svg>
