<svg width="242" height="248" viewBox="0 0 242 248" fill="none" xmlns="http://www.w3.org/2000/svg">
<path fill-rule="evenodd" clip-rule="evenodd" d="M226.172 124.006V124.006L226.292 125.064L226.633 126.129L227.172 127.207L227.885 128.303L228.748 129.422L229.736 130.567L230.826 131.74L231.991 132.943L233.205 134.176L234.441 135.437L235.669 136.725L236.862 138.035L237.99 139.365L239.026 140.707L239.941 142.056L240.713 143.404L241.32 144.744L241.743 146.067L241.97 147.366L241.993 148.632L241.809 149.86L241.42 151.044L240.834 152.179L240.062 153.263L239.122 154.293L238.032 155.269L236.815 156.194L235.493 157.069L234.091 157.899L232.633 158.688L231.141 159.442L229.638 160.168L228.144 160.871L226.677 161.558L225.255 162.237L223.89 162.915L222.596 163.597L221.383 164.291L220.259 165.003L219.231 165.739L218.304 166.504L217.482 167.305L216.768 168.145L216.161 169.029L215.662 169.962L215.27 170.947L214.982 171.986L214.795 173.083L214.705 174.24L214.706 175.457L214.792 176.734L214.954 178.071L215.183 179.467L215.469 180.918L215.801 182.419L216.163 183.966L216.543 185.551L216.924 187.164L217.289 188.795L217.621 190.433L217.899 192.063L218.106 193.67L218.223 195.239L218.232 196.754L218.117 198.196L217.864 199.552L217.462 200.805L216.902 201.942L216.181 202.954L215.297 203.831L214.256 204.569L213.065 205.167L211.735 205.628L210.282 205.959L208.724 206.167L207.081 206.267L205.373 206.273L203.623 206.202L201.852 206.074L200.082 205.909L198.333 205.727L196.624 205.548L194.973 205.394L193.396 205.286L191.908 205.245L190.522 205.29L189.249 205.444L188.102 205.728L187.09 206.163L186.225 206.773L185.507 207.57L184.917 208.542L184.435 209.673L184.043 210.947L183.722 212.348L183.455 213.861L183.225 215.465L183.015 217.142L182.809 218.871L182.589 220.629L182.34 222.392L182.048 224.135L181.698 225.834L181.276 227.462L180.773 228.994L180.178 230.408L179.485 231.682L178.691 232.799L177.793 233.744L176.794 234.508L175.696 235.084L174.508 235.473L173.236 235.678L171.893 235.71L170.488 235.579L169.035 235.302L167.546 234.897L166.034 234.385L164.509 233.787L162.984 233.124L161.468 232.419L159.969 231.692L158.495 230.962L157.051 230.249L155.642 229.568L154.271 228.936L152.941 228.365L151.653 227.867L150.406 227.453L149.199 227.13L148.033 226.907L146.904 226.788L145.81 226.78L144.748 226.884L143.715 227.102L142.707 227.437L141.72 227.888L140.75 228.454L139.793 229.131L138.845 229.916L137.9 230.803L136.956 231.786L136.007 232.855L135.05 234.001L134.08 235.211L133.093 236.469L132.087 237.761L131.059 239.066L130.005 240.366L128.926 241.637L127.82 242.856L126.686 244L125.527 245.043L124.344 245.963L123.141 246.735L121.921 247.34L120.688 247.761L119.45 247.984L118.21 248L116.976 247.805L115.753 247.401L114.547 246.794L113.364 245.997L112.207 245.026L111.08 243.903L109.985 242.65L108.924 241.296L107.895 239.868L106.899 238.394L105.931 236.905L104.989 235.429L104.068 233.993L103.162 232.624L102.264 231.347L101.368 230.187L100.466 229.166L99.5475 228.308L98.6036 227.633L97.6233 227.164L96.5947 226.925L95.5106 226.913L94.3699 227.103L93.1724 227.472L91.9188 227.994L90.6106 228.646L89.2506 229.403L87.8425 230.24L86.3914 231.132L84.9038 232.053L83.3873 232.975L81.851 233.871L80.3052 234.714L78.7613 235.477L77.2311 236.135L75.7273 236.663L74.2623 237.042L72.8481 237.253L71.4962 237.284L70.2162 237.124L69.0165 236.772L67.9032 236.227L66.8801 235.495L65.9487 234.588L65.1083 233.518L64.3556 232.305L63.6854 230.968L63.0907 229.528L62.563 228.008L62.0929 226.431L61.6698 224.818L61.2832 223.19L60.9218 221.567L60.575 219.965L60.2321 218.401L59.8829 216.888L59.5179 215.438L59.1279 214.059L58.7047 212.76L58.2405 211.547L57.7284 210.425L57.1621 209.395L56.5358 208.461L55.8447 207.623L55.0844 206.88L54.2513 206.23L53.3427 205.672L52.3562 205.201L51.2908 204.815L50.1461 204.507L48.9227 204.271L47.6224 204.1L46.2483 203.987L44.805 203.923L43.2983 203.896L41.7359 203.897L40.1273 203.912L38.4839 203.929L36.8186 203.935L35.1466 203.913L33.4844 203.85L31.8502 203.729L30.2632 203.537L28.7432 203.259L27.3102 202.882L25.9835 202.394L24.7811 201.788L23.7191 201.056L22.8105 200.194L22.0651 199.203L21.4888 198.086L21.0832 196.85L20.8452 195.503L20.7678 194.058L20.8396 192.528L21.0455 190.931L21.3674 189.283L21.7847 187.602L22.2748 185.905L22.814 184.208L23.3779 182.528L23.9418 180.879L24.4812 179.275L24.972 177.727L25.3905 176.246L25.7133 174.84L25.9173 173.519L25.9795 172.287L25.8763 171.151L25.5831 170.117L25.0768 169.188L24.362 168.354L23.4581 167.597L22.3846 166.904L21.1607 166.259L19.8064 165.649L18.3426 165.061L16.7916 164.483L15.1767 163.902L13.5229 163.308L11.8563 162.69L10.2043 162.038L8.59463 161.343L7.05518 160.598L5.61321 159.797L4.29449 158.935L3.1225 158.01L2.11761 157.02L1.29626 155.966L0.670356 154.851L0.246843 153.679L0.0274427 152.457L0.00870898 151.19L0.182287 149.888L0.5354 148.558L1.0515 147.209L1.71106 145.849L2.49235 144.486L3.37235 143.127L4.32745 141.779L5.33418 140.446L6.36981 139.134L7.41276 137.845L8.44297 136.581L9.44214 135.344L10.3938 134.134L11.2834 132.95L12.0984 131.792L12.8278 130.656L13.4626 129.542L13.9953 128.445L14.42 127.364L14.732 126.294L14.9281 125.232L15.0063 124.174L14.9658 123.117L14.8071 122.057L14.5318 120.99L14.1426 119.913L13.6437 118.821L13.0407 117.713L12.3405 116.584L11.5517 115.433L10.6846 114.258L9.75116 113.056L8.76543 111.827L7.7432 110.572L6.70221 109.291L5.66198 107.986L4.64362 106.66L3.66956 105.316L2.76307 103.96L1.94779 102.597L1.24702 101.236L0.682985 99.8821L0.276 98.5451L0.0436528 97.233L0 95.9543L0.154866 94.717L0.513301 93.5285L1.07524 92.3949L1.8354 91.3212L2.78341 90.3106L3.90421 89.3644L5.1786 88.4824L6.58403 87.6624L8.09533 86.9002L9.68564 86.1903L11.3272 85.5255L12.9921 84.8975L14.6529 84.2967L16.283 83.713L17.857 83.1352L19.351 82.5517L20.7425 81.9501L22.0101 81.3179L23.1337 80.6415L24.0937 79.907L24.8708 79.0992L25.4456 78.2019L25.8047 77.2011L25.9657 76.0973L25.9536 74.8957L25.7923 73.6019L25.5048 72.2223L25.1143 70.7645L24.644 69.2368L24.1174 67.6494L23.5587 66.0134L22.9921 64.3417L22.4424 62.6486L21.934 60.9496L21.491 59.2613L21.1364 57.6008L20.8914 55.9856L20.7751 54.4331L20.8036 52.9595L20.9894 51.5797L21.3412 50.3067L21.8631 49.1508L22.555 48.1194L23.4125 47.2166L24.4269 46.4434L25.5862 45.7974L26.8752 45.2729L28.2763 44.8618L29.7708 44.5535L31.3386 44.3354L32.9599 44.1938L34.6152 44.1138L36.286 44.0806L37.9551 44.0788L39.607 44.0938L41.228 44.1113L42.8062 44.1179L44.3316 44.1013L45.7959 44.0499L47.1925 43.9532L48.5167 43.802L49.7649 43.5879L50.9348 43.3035L52.0255 42.9424L53.037 42.4993L53.9702 41.9694L54.8271 41.3493L55.6102 40.6361L56.3229 39.8281L56.9693 38.9245L57.5542 37.9254L58.0829 36.8322L58.5616 35.6476L58.9971 34.3756L59.3968 33.0217L59.7688 31.5931L60.122 30.0987L60.4659 28.5495L60.8103 26.9584L61.1658 25.3401L61.5433 23.7117L61.9535 22.0919L62.4075 20.5009L62.9158 18.9604L63.4881 17.4927L64.1334 16.1203L64.8592 14.8652L65.6713 13.7481L66.5734 12.7873L67.5674 11.9984L68.6523 11.3931L69.825 10.9788L71.0802 10.7582L72.4103 10.7289L73.8057 10.8838L75.2558 11.2108L76.7486 11.6937L78.2718 12.3126L79.8127 13.0448L81.3591 13.8652L82.8996 14.7473L84.4234 15.6641L85.9212 16.5882L87.3847 17.4923L88.8071 18.3499L90.1829 19.1352L91.5079 19.8232L92.7791 20.3892L93.9946 20.8093L95.1534 21.0593L96.2555 21.1146L97.3015 20.9495L98.2959 20.5517L99.2501 19.9403L100.175 19.1377L101.082 18.1662L101.979 17.048L102.875 15.8059L103.778 14.4636L104.693 13.0462L105.628 11.5797L106.587 10.0916L107.575 8.61009L108.593 7.16427L109.644 5.78319L110.728 4.49537L111.845 3.32801L112.992 2.30612L114.168 1.45166L115.367 0.782783L116.585 0.313072L117.816 0.0510763L119.054 0L120.294 0.157656L121.529 0.516678L122.754 1.06496L123.963 1.7863L125.153 2.66118L126.32 3.66759L127.461 4.78195L128.577 5.97993L129.665 7.23718L130.726 8.53002L131.762 9.83594L132.775 11.134L133.767 12.4049L134.742 13.6317L135.703 14.7992L136.654 15.8942L137.6 16.9057L138.544 17.8244L139.49 18.6426L140.444 19.3546L141.409 19.9559L142.39 20.4434L143.391 20.8153L144.416 21.0712L145.468 21.2116L146.552 21.2384L147.669 21.1544L148.824 20.9639L150.017 20.6722L151.251 20.2862L152.526 19.8139L153.843 19.265L155.201 18.6508L156.598 17.984L158.031 17.2795L159.496 16.5532L160.988 15.8233L162.5 15.1088L164.023 14.4304L165.549 13.8094L167.066 13.2675L168.564 12.8263L170.03 12.5065L171.451 12.3272L172.816 12.3051L174.111 12.4541L175.327 12.7839L176.455 13.3004L177.486 14.0045L178.416 14.8926L179.244 15.956L179.968 17.182L180.593 18.5536L181.125 20.0508L181.572 21.6508L181.943 23.3294L182.253 25.0613L182.514 26.8209L182.741 28.583L182.95 30.3236L183.157 32.0195L183.379 33.6493L183.632 35.1929L183.934 36.6316L184.302 37.9482L184.753 39.1264L185.306 40.1505L185.981 41.005L186.798 41.6751L187.764 42.1633L188.869 42.4925L190.103 42.6853L191.455 42.7632L192.912 42.7472L194.462 42.6581L196.091 42.5167L197.783 42.3437L199.521 42.1602L201.287 41.987L203.06 41.845L204.819 41.7542L206.543 41.7339L208.209 41.802L209.797 41.9743L211.285 42.2645L212.656 42.683L213.892 43.2371L214.983 43.9308L215.917 44.764L216.69 45.7332L217.301 46.8316L217.753 48.0492L218.052 49.3735L218.209 50.7902L218.238 52.2834L218.154 53.8368L217.973 55.4338L217.716 57.0582L217.4 58.6949L217.043 60.3298L216.665 61.9501L216.283 63.5448L215.913 65.1044L215.571 66.621L215.269 68.0885L215.02 69.5021L214.835 70.8583L214.725 72.155L214.696 73.3912L214.756 74.5668L214.912 75.6826L215.167 76.7403L215.525 77.7422L215.99 78.6911L216.562 79.5904L217.243 80.4441L218.031 81.2566L218.925 82.0326L219.921 82.7773L221.015 83.4963L222.2 84.1954L223.47 84.8808L224.813 85.559L226.219 86.2367L227.673 86.9208L229.16 87.6181L230.663 88.3356L232.16 89.0799L233.632 89.8572L235.054 90.6736L236.404 91.534L237.657 92.4426L238.79 93.4025L239.78 94.4154L240.607 95.4819L241.254 96.6008L241.707 97.7695L241.957 98.984L242 100.239L241.837 101.528L241.475 102.844L240.925 104.179L240.204 105.526L239.331 106.875L238.331 108.22L237.23 109.555L236.055 110.872L234.834 112.168L233.598 113.438L232.374 114.679L231.19 115.892L230.074 117.074L229.05 118.228L228.145 119.355L227.382 120.458L226.785 121.542L226.377 122.61L226.184 123.669L226.172 124.006Z" fill="#FDED1F"/>
</svg>
