<svg width="794" height="433" viewBox="0 0 794 433" fill="none" xmlns="http://www.w3.org/2000/svg">
<path d="M375.693 0.59082L390.742 124.285L454.061 4.94962L420.183 127.597L529.004 17.8356L447.68 134.075L597.246 38.6854L472.03 143.437L674.172 49.796L492.17 155.274L702.123 100.324L507.22 169.068L734.174 138.418L516.521 184.216L750.557 179.207L519.667 200.057L750.557 220.907L516.521 215.897L793.828 266.193L507.22 231.046L761.339 326.244L492.17 244.84L710.095 373.333L472.03 256.676L597.246 361.428L447.68 266.039L529.004 382.278L420.183 272.517L503.009 432.591L390.742 275.829L378.07 419.893L360.643 275.829L274.791 419.893L331.202 272.517L222.382 382.278L303.706 266.039L154.139 361.428L279.355 256.676L95.5795 333.526L259.215 244.84L49.2622 299.79L244.166 231.046L17.2115 261.695L234.865 215.897L0.828125 220.907L231.718 200.057L0.828125 179.207L234.865 184.216L17.2115 138.418L244.166 169.068L49.2622 100.324L259.215 155.274L95.5795 66.588L279.355 143.437L154.139 38.6854L303.706 134.075L222.382 17.8356L331.202 127.597L297.325 4.94962L360.643 124.285L375.693 0.59082Z" fill="#4600FB"/>
</svg>
