<svg width="989" height="335" viewBox="0 0 989 335" fill="none" xmlns="http://www.w3.org/2000/svg">
<path d="M879 259.328C890.288 256.273 899.021 246.301 904.572 236.422C908.014 230.297 910.648 223.923 911.807 216.97C912.107 215.166 912.374 213.356 912.659 211.549C912.665 211.51 912.873 208.994 913.227 210.457C914.096 214.042 914.175 217.615 915.282 221.21C917.451 228.261 919.277 235.799 923.5 241.974C927.812 248.279 934.985 253.723 941.859 256.945C942.287 257.146 945.553 258.541 945.006 258.541C935.414 258.541 928.99 271.169 925.073 278.124C919.803 287.484 915.053 297.466 912.703 308.002C912.133 310.555 911.26 318.333 911.26 315.717C911.26 311.96 910.652 308.28 910.255 304.548C909.414 296.646 908.309 288.656 905.752 281.097C903.821 275.385 900.694 269.921 896.966 265.185C896.072 264.05 894.815 263.733 893.95 262.868" stroke="white" stroke-width="3" stroke-linecap="round"/>
<path d="M960.225 148C960.361 151.274 961.599 154.178 962.864 157.157C965.004 162.198 967.279 166.912 971.998 170.035C975.825 172.567 980.335 174.504 984.605 176.146C984.94 176.275 987.181 176.745 986.341 177.432C984.709 178.768 982.885 179.281 981.47 181.04C977.068 186.513 974.912 193.586 973.915 200.436C972.992 206.777 973.621 212.984 973.621 219.336C973.621 221.628 973.941 222.033 973.373 219.764C971.038 210.422 966.422 200.099 960.405 192.52C957.478 188.832 951.544 189.027 947.324 187.874C946.509 187.651 942.602 187.428 942.047 186.476C941.555 185.631 945.084 180.772 945.43 180.071C947.877 175.106 950.238 169.473 951.204 164.013C951.978 159.634 953.324 146.395 953.324 150.842" stroke="white" stroke-width="3" stroke-linecap="round"/>
<path d="M108.999 66.6224C108.743 77.6528 105.014 90.8236 95.2527 96.9591C93.5309 98.0414 91.554 98.9461 89.6292 99.5877C88.4609 99.9772 90.8093 99.5877 90.9866 99.5877C94.2573 99.5877 96.4809 103.346 98.3123 105.577C102.4 110.558 104.987 115.233 106.672 121.478C107.445 124.341 107.199 128.105 108.417 130.786C109.464 133.088 108.223 125.731 108.223 123.202C108.223 118.055 108.693 112.91 111.412 108.378C114.363 103.461 119.374 100.118 124.34 97.4762C125.054 97.0963 130.294 95.7741 129.08 94.9338C127.781 94.0348 126.361 93.6375 125.202 92.5206C121.916 89.3568 117.879 85.144 116.734 80.5626C116.422 79.3138 113.659 71.2763 113.265 71.2763" stroke="white" stroke-width="3" stroke-linecap="round"/>
<path d="M2 44.555C7.06993 43.8308 12.0826 41.0791 16.5529 38.7208C21.7776 35.9645 25.7864 32.0361 28.877 26.9867C33.1968 19.9289 34.3195 10.7286 34.4491 2.56792C34.4506 2.47349 34.4491 1.55324 34.4491 2.27293C34.4491 3.99832 34.7087 5.5898 35.1046 7.28779C37.1303 15.9759 39.2959 26.3485 45.921 32.8209C50.0582 36.8629 54.9935 40.9413 60.31 43.3095C60.5171 43.4018 62.9233 44.3141 62.6371 44.555C62.2075 44.9169 61.505 44.8057 60.9983 44.9156C58.955 45.3587 56.9285 46.6744 55.2624 47.8655C48.5858 52.6386 43.3135 60.065 39.3656 67.1383C36.6905 71.9312 35.0056 76.7685 33.3347 81.9206C32.9021 83.2542 32.6468 79.2018 32.253 77.8563C31.0867 73.8714 30.1092 69.4598 27.7298 65.9911C25.1146 62.1786 20.724 58.8696 17.0773 56.158C13.8243 53.7391 10.2689 52.5347 6.78542 50.6188C6.24825 50.3233 3.57168 48.7345 4.94991 48.3899" stroke="white" stroke-width="3" stroke-linecap="round"/>
<path d="M176 322C205.436 324.154 236.188 323.975 265.887 324.084C319.247 324.279 372.769 323.835 425.943 326.325C457.98 327.825 489.509 331.2 521.614 332.381C551.432 333.477 582.301 332.948 612.134 332.105C635.623 331.442 657.614 329.532 680.489 327.171C705.998 324.537 732.19 324.273 758.216 324.143C770.178 324.083 782.164 324.108 794.103 323.691C795.325 323.648 800.673 323.755 799.929 323.062" stroke="white" stroke-width="3" stroke-linecap="round"/>
</svg>
