<svg width="467" height="254" viewBox="0 0 467 254" fill="none" xmlns="http://www.w3.org/2000/svg">
<path d="M220.759 0L229.621 72.7276L266.91 2.56282L246.959 74.6747L311.044 10.1393L263.152 78.4838L351.232 22.3982L277.492 83.9884L396.534 28.9308L289.353 90.9479L412.995 58.6393L298.215 99.0583L431.869 81.0375L303.693 107.965L441.517 105.02L305.546 117.279L441.517 129.538L303.693 126.592L467 156.164L298.215 135.499L447.867 191.472L289.353 143.609L417.69 219.159L277.492 150.569L351.232 212.159L263.152 156.073L311.044 224.418L246.959 159.883L295.736 254L229.621 161.83L222.159 246.534L211.896 161.83L161.337 246.534L194.558 159.883L130.473 224.418L178.365 156.073L90.2853 212.159L164.025 150.569L55.7994 195.753L152.165 143.609L28.523 175.918L143.302 135.499L9.64823 153.52L137.825 126.592L0 129.538L135.972 117.279L0 105.02L137.825 107.965L9.64823 81.0375L143.302 99.0583L28.523 58.6393L152.165 90.9479L55.7994 38.8039L164.025 83.9884L90.2853 22.3982L178.365 78.4838L130.473 10.1393L194.558 74.6747L174.608 2.56282L211.896 72.7276L220.759 0Z" fill="#4600FB"/>
</svg>
