<svg width="398" height="216" viewBox="0 0 398 216" fill="none" xmlns="http://www.w3.org/2000/svg">
<path d="M188.141 0L195.694 61.8471L227.474 2.1794L210.471 63.5029L265.087 8.62237L224.271 66.7421L299.337 19.0473L236.492 71.4232L337.946 24.6026L246.6 77.3415L351.974 49.8665L254.154 84.2385L368.06 68.9138L258.822 91.8127L376.283 89.3081L260.401 99.733L376.283 110.158L258.822 107.653L398 132.801L254.154 115.227L381.694 162.827L246.6 122.124L355.975 186.371L236.492 128.043L299.337 180.419L224.271 132.724L265.087 190.844L210.471 135.963L252.04 216L195.694 137.619L189.335 209.651L180.588 137.619L137.5 209.651L165.812 135.963L111.196 190.844L152.012 132.724L76.9455 180.419L139.79 128.043L47.5549 166.467L129.682 122.124L24.3087 149.6L122.129 115.227L8.22268 130.552L117.461 107.653L0 110.158L115.882 99.733L0 89.3081L117.461 91.8127L8.22268 68.9138L122.129 84.2385L24.3087 49.8665L129.682 77.3415L47.5549 32.9986L139.79 71.4232L76.9455 19.0473L152.012 66.7421L111.196 8.62237L165.812 63.5029L148.809 2.1794L180.588 61.8471L188.141 0Z" fill="#4600FB"/>
</svg>
