<svg width="496" height="564" viewBox="0 0 496 564" fill="none" xmlns="http://www.w3.org/2000/svg">
<path d="M103 451.377C4.65 509.608 -61.2988 431.134 103 218" stroke="black" stroke-width="5"/>
<path d="M155.075 485.325C154.386 590.44 335.86 599.502 399.825 363.555" stroke="black" stroke-width="5"/>
<rect x="316.113" y="38.2559" width="168.514" height="476.207" transform="rotate(34.0995 316.113 38.2559)" fill="#FECED6"/>
<ellipse cx="254.443" cy="276.237" rx="30.7863" ry="70.028" transform="rotate(-55.9005 254.443 276.237)" fill="white"/>
<ellipse cx="299.244" cy="211.525" rx="30.7863" ry="70.028" transform="rotate(-55.9005 299.244 211.525)" fill="white"/>
<ellipse cx="72" cy="425" rx="11" ry="15" fill="#FDED1F"/>
<ellipse cx="201" cy="379" rx="11" ry="15" fill="#FDED1F"/>
<ellipse cx="152.5" cy="482.5" rx="11.5" ry="14.5" fill="#FDED1F"/>
<ellipse cx="121.5" cy="357.5" rx="11.5" ry="14.5" fill="#FDED1F"/>
<ellipse cx="92" cy="440" rx="11" ry="15" fill="#FDED1F"/>
<ellipse cx="245.5" cy="407" rx="11.5" ry="15" fill="#FDED1F"/>
<ellipse cx="185.5" cy="503.5" rx="11.5" ry="14.5" fill="#FDED1F"/>
<ellipse cx="152.5" cy="334.5" rx="11.5" ry="14.5" fill="#FDED1F"/>
<ellipse cx="170" cy="438.5" rx="11" ry="14.5" fill="#FDED1F"/>
<ellipse cx="94.5" cy="407" rx="11.5" ry="15" fill="#FDED1F"/>
<ellipse cx="230.5" cy="379" rx="11.5" ry="15" fill="#FDED1F"/>
<ellipse cx="177" cy="473" rx="11" ry="15" fill="#FDED1F"/>
<ellipse cx="206" cy="473.5" rx="11" ry="14.5" fill="#FDED1F"/>
<ellipse cx="147.5" cy="411.5" rx="11.5" ry="14.5" fill="#FDED1F"/>
<ellipse cx="121" cy="428.5" rx="11" ry="14.5" fill="#FDED1F"/>
<ellipse cx="170" cy="390.5" rx="11" ry="14.5" fill="#FDED1F"/>
<ellipse cx="259.5" cy="378.5" rx="11.5" ry="14.5" fill="#FDED1F"/>
<ellipse cx="229.5" cy="437" rx="11.5" ry="15" fill="#FDED1F"/>
<ellipse cx="117" cy="389.5" rx="11" ry="14.5" fill="#FDED1F"/>
<ellipse cx="215.5" cy="349" rx="11.5" ry="15" fill="#FDED1F"/>
<ellipse cx="203.5" cy="444" rx="11.5" ry="15" fill="#FDED1F"/>
<ellipse cx="177" cy="354" rx="11" ry="15" fill="#FDED1F"/>
<ellipse cx="214" cy="411.5" rx="11" ry="14.5" fill="#FDED1F"/>
<ellipse cx="125.5" cy="462" rx="11.5" ry="15" fill="#FDED1F"/>
<ellipse cx="145.5" cy="447" rx="11.5" ry="15" fill="#FDED1F"/>
<ellipse cx="148.5" cy="375" rx="11.5" ry="15" fill="#FDED1F"/>
<ellipse cx="187.5" cy="411.5" rx="11.5" ry="14.5" fill="#FDED1F"/>
<circle cx="227.5" cy="258.5" r="16.5" fill="black"/>
<ellipse cx="330.5" cy="224" rx="16.5" ry="17" fill="black"/>
<path d="M314 161.902C328.999 155.655 357.158 152.329 349.794 189" stroke="black" stroke-width="5"/>
<ellipse cx="378.653" cy="99.1443" rx="103.538" ry="43.5557" transform="rotate(29.8081 378.653 99.1443)" fill="white"/>
<path d="M67.3374 307.803L28.9754 263.829C1.2799 232.081 28.0397 230.012 44.8816 232.946C26.9169 213.61 48.0005 209.224 60.7878 209.448C46.3163 189.307 66.8176 190.314 78.8772 193.335C64.4057 170.508 81.3723 176.886 91.6645 182.929L87.2981 171.516C77.6296 137.947 149.052 179.236 172.131 209.448C190.595 233.617 161.111 239.436 144.061 239.324C154.79 268.058 136.888 267.633 126.596 263.829C134.83 293.369 110.274 296.055 96.9666 293.705C99.2122 317.605 78.1495 313.063 67.3374 307.803Z" fill="#FDED1F"/>
<path d="M387.719 303.008L441.84 328.582C480.912 347.044 456.527 359.955 439.451 364.103C464.282 374.898 446.195 387.658 434.047 392.689C455.914 405.672 436.174 413.129 423.571 415.234C446.533 430.739 427.933 431.704 415.763 430.248L424.539 439.176C447.358 466.737 363.165 457.236 329.072 438.324C301.797 423.194 327.219 405.646 343.34 398.763C321.494 376.176 338.546 369.238 349.803 368.592C329.98 344.226 352.035 331.64 365.54 328.392C353.666 306.868 375.379 302.501 387.719 303.008Z" fill="#FDED1F"/>
<ellipse cx="382.637" cy="89.2615" rx="103.538" ry="43.5557" transform="rotate(29.8081 382.637 89.2615)" fill="#71F0F0"/>
</svg>
